<mxfile host="Electron" modified="2024-02-06T07:21:10.786Z" agent="Mozilla/5.0 (Windows NT 10.0; Win64; x64) AppleWebKit/537.36 (KHTML, like Gecko) draw.io/22.1.2 Chrome/114.0.5735.289 Electron/25.9.4 Safari/537.36" etag="2F5TgFK9R_To7KukDd_u" version="22.1.2" type="device">
  <diagram id="5OxW3cBELfkocQmgd8ur" name="第 1 页">
    <mxGraphModel dx="1008" dy="701" grid="1" gridSize="10" guides="1" tooltips="1" connect="1" arrows="1" fold="1" page="1" pageScale="1" pageWidth="50000" pageHeight="50000" math="0" shadow="0">
      <root>
        <mxCell id="0" />
        <mxCell id="1" parent="0" />
        <mxCell id="3" value="&lt;font face=&quot;Comic Sans MS&quot; style=&quot;font-size: 8px;&quot;&gt;内核空间&lt;/font&gt;" style="rounded=0;whiteSpace=wrap;html=1;strokeWidth=2;fontStyle=1;fontSize=8;align=left;" parent="1" vertex="1">
          <mxGeometry x="40280" y="5540" width="80" height="60" as="geometry" />
        </mxCell>
        <mxCell id="4" value="&lt;font face=&quot;Comic Sans MS&quot; style=&quot;font-size: 8px;&quot;&gt;命令行参数&lt;br style=&quot;font-size: 8px;&quot;&gt;环境变量&lt;/font&gt;" style="rounded=0;whiteSpace=wrap;html=1;strokeWidth=2;fontStyle=1;fontSize=8;align=left;" parent="1" vertex="1">
          <mxGeometry x="40280" y="5600" width="80" height="40" as="geometry" />
        </mxCell>
        <mxCell id="5" value="&lt;font face=&quot;Comic Sans MS&quot; style=&quot;font-size: 8px;&quot;&gt;栈&lt;/font&gt;" style="rounded=0;whiteSpace=wrap;html=1;strokeWidth=2;fontStyle=1;fontSize=8;align=left;" parent="1" vertex="1">
          <mxGeometry x="40280" y="5640" width="80" height="40" as="geometry" />
        </mxCell>
        <mxCell id="6" value="&lt;font face=&quot;Comic Sans MS&quot; style=&quot;font-size: 8px;&quot;&gt;共享空间&lt;/font&gt;" style="rounded=0;whiteSpace=wrap;html=1;strokeWidth=2;fontStyle=1;fontSize=8;align=left;" parent="1" vertex="1">
          <mxGeometry x="40280" y="5680" width="80" height="40" as="geometry" />
        </mxCell>
        <mxCell id="7" value="&lt;font face=&quot;Comic Sans MS&quot; style=&quot;font-size: 8px;&quot;&gt;堆&lt;/font&gt;" style="rounded=0;whiteSpace=wrap;html=1;strokeWidth=2;fontStyle=1;fontSize=8;align=left;" parent="1" vertex="1">
          <mxGeometry x="40280" y="5720" width="80" height="80" as="geometry" />
        </mxCell>
        <mxCell id="8" value="&lt;font face=&quot;Comic Sans MS&quot; style=&quot;font-size: 8px;&quot;&gt;未初始化数据&lt;/font&gt;" style="rounded=0;whiteSpace=wrap;html=1;strokeWidth=2;fontStyle=1;fontSize=8;align=left;" parent="1" vertex="1">
          <mxGeometry x="40280" y="5800" width="80" height="40" as="geometry" />
        </mxCell>
        <mxCell id="9" value="&lt;font face=&quot;Comic Sans MS&quot; style=&quot;font-size: 8px;&quot;&gt;初始化数据&lt;/font&gt;" style="rounded=0;whiteSpace=wrap;html=1;strokeWidth=2;fontStyle=1;fontSize=8;align=left;" parent="1" vertex="1">
          <mxGeometry x="40280" y="5840" width="80" height="40" as="geometry" />
        </mxCell>
        <mxCell id="10" value="&lt;font face=&quot;Comic Sans MS&quot; style=&quot;font-size: 8px;&quot;&gt;正文代码&lt;/font&gt;" style="rounded=0;whiteSpace=wrap;html=1;strokeWidth=2;fontStyle=1;fontSize=8;align=left;" parent="1" vertex="1">
          <mxGeometry x="40280" y="5880" width="80" height="40" as="geometry" />
        </mxCell>
        <mxCell id="11" value="" style="shape=curlyBracket;whiteSpace=wrap;html=1;rounded=1;labelPosition=left;verticalLabelPosition=middle;align=left;verticalAlign=middle;strokeWidth=2;fontFamily=Comic Sans MS;fontSize=8;" parent="1" vertex="1">
          <mxGeometry x="40240" y="5540" width="20" height="60" as="geometry" />
        </mxCell>
        <mxCell id="12" value="&lt;b style=&quot;font-size: 8px;&quot;&gt;内核空间1G&lt;/b&gt;" style="text;html=1;align=left;verticalAlign=middle;resizable=0;points=[];autosize=1;strokeColor=none;fillColor=none;fontFamily=Comic Sans MS;fontSize=8;" parent="1" vertex="1">
          <mxGeometry x="40160" y="5560" width="70" height="20" as="geometry" />
        </mxCell>
        <mxCell id="13" value="" style="shape=curlyBracket;whiteSpace=wrap;html=1;rounded=1;labelPosition=left;verticalLabelPosition=middle;align=left;verticalAlign=middle;strokeWidth=2;fontFamily=Comic Sans MS;fontSize=8;" parent="1" vertex="1">
          <mxGeometry x="40240" y="5600" width="20" height="320" as="geometry" />
        </mxCell>
        <mxCell id="14" value="&lt;b style=&quot;font-size: 8px;&quot;&gt;用户空间3G&lt;/b&gt;" style="text;html=1;align=left;verticalAlign=middle;resizable=0;points=[];autosize=1;strokeColor=none;fillColor=none;fontFamily=Comic Sans MS;fontSize=8;" parent="1" vertex="1">
          <mxGeometry x="40160" y="5750" width="70" height="20" as="geometry" />
        </mxCell>
        <mxCell id="15" value="&lt;b style=&quot;font-size: 8px;&quot;&gt;mm_struct&lt;/b&gt;" style="text;html=1;align=left;verticalAlign=middle;resizable=0;points=[];autosize=1;strokeColor=none;fillColor=none;fontFamily=Comic Sans MS;fontSize=8;" parent="1" vertex="1">
          <mxGeometry x="40290" y="5515" width="60" height="20" as="geometry" />
        </mxCell>
        <mxCell id="20" style="edgeStyle=none;html=1;fontFamily=Comic Sans MS;exitX=1;exitY=0.5;exitDx=0;exitDy=0;fillColor=#a20025;strokeColor=#6F0000;strokeWidth=2;fontSize=8;align=left;" parent="1" source="27" target="21" edge="1">
          <mxGeometry relative="1" as="geometry">
            <mxPoint x="40630.00000000001" y="5550" as="targetPoint" />
            <mxPoint x="40410" y="5470" as="sourcePoint" />
          </mxGeometry>
        </mxCell>
        <mxCell id="26" value="&lt;div style=&quot;color: rgb(204, 204, 204); background-color: rgb(31, 31, 31); font-family: Consolas, &amp;quot;Courier New&amp;quot;, monospace; font-size: 8px; line-height: 19px;&quot;&gt;&lt;div style=&quot;font-size: 8px;&quot;&gt;mm_struct{&lt;span style=&quot;color: rgb(106, 153, 85); font-size: 8px;&quot;&gt;/*...*/&lt;/span&gt;}; 的内部还有&lt;/div&gt;&lt;div style=&quot;font-size: 8px;&quot;&gt;一个指针 &lt;span style=&quot;color: rgb(86, 156, 214); font-size: 8px;&quot;&gt;struct&lt;/span&gt; vm_area_struct&lt;span style=&quot;color: rgb(212, 212, 212); font-size: 8px;&quot;&gt;*&lt;/span&gt; mmap;&lt;/div&gt;&lt;/div&gt;" style="text;html=1;align=left;verticalAlign=middle;resizable=0;points=[];autosize=1;strokeColor=none;fillColor=none;fontFamily=Comic Sans MS;fontSize=8;" parent="1" vertex="1">
          <mxGeometry x="40170" y="5450" width="180" height="50" as="geometry" />
        </mxCell>
        <mxCell id="27" value="" style="whiteSpace=wrap;html=1;strokeWidth=2;fontFamily=Comic Sans MS;fillColor=none;fontColor=#ffffff;strokeColor=#6F0000;fontSize=8;align=left;" parent="1" vertex="1">
          <mxGeometry x="40360" y="5470" width="40" height="30" as="geometry" />
        </mxCell>
        <mxCell id="33" value="&lt;b style=&quot;font-size: 8px;&quot;&gt;...&lt;/b&gt;" style="text;html=1;align=left;verticalAlign=middle;resizable=0;points=[];autosize=1;strokeColor=none;fillColor=none;fontFamily=Comic Sans MS;fontSize=8;" parent="1" vertex="1">
          <mxGeometry x="40645" y="5945" width="30" height="20" as="geometry" />
        </mxCell>
        <mxCell id="34" value="" style="group;fontSize=8;align=left;" parent="1" vertex="1" connectable="0">
          <mxGeometry x="40505" y="5360" width="290" height="180" as="geometry" />
        </mxCell>
        <mxCell id="21" value="&lt;div style=&quot;color: rgb(204, 204, 204); background-color: rgb(31, 31, 31); font-family: Consolas, &amp;quot;Courier New&amp;quot;, monospace; font-size: 8px; line-height: 19px;&quot;&gt;&lt;div style=&quot;font-size: 8px;&quot;&gt;&lt;span style=&quot;color: rgb(86, 156, 214); font-size: 8px;&quot;&gt;struct&lt;/span&gt; vm_area_struct&lt;/div&gt;&lt;div style=&quot;font-size: 8px;&quot;&gt;{&lt;/div&gt;&lt;div style=&quot;font-size: 8px;&quot;&gt;&lt;span style=&quot;color: rgb(106, 153, 85); font-size: 8px;&quot;&gt;&amp;nbsp; &amp;nbsp; /*...*/&lt;/span&gt;&lt;/div&gt;&lt;div style=&quot;font-size: 8px;&quot;&gt;&amp;nbsp; &amp;nbsp; &lt;span style=&quot;color: rgb(86, 156, 214); font-size: 8px;&quot;&gt;unsigned&lt;/span&gt; &lt;span style=&quot;color: rgb(86, 156, 214); font-size: 8px;&quot;&gt;long&lt;/span&gt; vm_start;&lt;/div&gt;&lt;div style=&quot;font-size: 8px;&quot;&gt;&amp;nbsp; &amp;nbsp; &lt;span style=&quot;color: rgb(86, 156, 214); font-size: 8px;&quot;&gt;unsigned&lt;/span&gt; &lt;span style=&quot;color: rgb(86, 156, 214); font-size: 8px;&quot;&gt;long&lt;/span&gt; vm_end;&lt;/div&gt;&lt;div style=&quot;font-size: 8px;&quot;&gt;&lt;span style=&quot;color: rgb(106, 153, 85); font-size: 8px;&quot;&gt;&amp;nbsp; &amp;nbsp; /*...*/&lt;/span&gt;&lt;/div&gt;&lt;div style=&quot;font-size: 8px;&quot;&gt;&amp;nbsp; &amp;nbsp; &lt;span style=&quot;color: rgb(86, 156, 214); font-size: 8px;&quot;&gt;struct&lt;/span&gt; vm_area_struct&lt;span style=&quot;color: rgb(212, 212, 212); font-size: 8px;&quot;&gt;*&lt;/span&gt; vm_next;&lt;/div&gt;&lt;div style=&quot;font-size: 8px;&quot;&gt;&lt;span style=&quot;color: rgb(106, 153, 85); font-size: 8px;&quot;&gt;&amp;nbsp; &amp;nbsp; /*...*/&lt;/span&gt;&lt;/div&gt;&lt;div style=&quot;font-size: 8px;&quot;&gt;} vm1;&lt;/div&gt;&lt;/div&gt;" style="text;html=1;align=left;verticalAlign=middle;resizable=0;points=[];autosize=1;strokeColor=none;fillColor=none;fontFamily=Comic Sans MS;fontSize=8;" parent="34" vertex="1">
          <mxGeometry width="180" height="180" as="geometry" />
        </mxCell>
        <mxCell id="28" value="" style="whiteSpace=wrap;html=1;strokeWidth=2;fontFamily=Comic Sans MS;fillColor=none;fontColor=#ffffff;strokeColor=#6F0000;fontSize=8;align=left;" parent="34" vertex="1">
          <mxGeometry x="204" y="113" width="70" height="30" as="geometry" />
        </mxCell>
        <mxCell id="23" style="edgeStyle=none;html=1;fontFamily=Comic Sans MS;fillColor=#a20025;strokeColor=#6F0000;strokeWidth=2;exitX=0.5;exitY=1;exitDx=0;exitDy=0;fontSize=8;align=left;" parent="1" source="28" target="22" edge="1">
          <mxGeometry relative="1" as="geometry" />
        </mxCell>
        <mxCell id="35" value="" style="group;fontSize=8;align=left;" parent="1" vertex="1" connectable="0">
          <mxGeometry x="40550" y="5565" width="290" height="180" as="geometry" />
        </mxCell>
        <mxCell id="22" value="&lt;div style=&quot;color: rgb(204, 204, 204); background-color: rgb(31, 31, 31); font-family: Consolas, &amp;quot;Courier New&amp;quot;, monospace; font-size: 8px; line-height: 19px;&quot;&gt;&lt;div style=&quot;font-size: 8px;&quot;&gt;&lt;span style=&quot;color: rgb(86, 156, 214); font-size: 8px;&quot;&gt;struct&lt;/span&gt; vm_area_struct&lt;/div&gt;&lt;div style=&quot;font-size: 8px;&quot;&gt;{&lt;/div&gt;&lt;div style=&quot;font-size: 8px;&quot;&gt;&lt;span style=&quot;color: rgb(106, 153, 85); font-size: 8px;&quot;&gt;&amp;nbsp; &amp;nbsp; /*...*/&lt;/span&gt;&lt;/div&gt;&lt;div style=&quot;font-size: 8px;&quot;&gt;&amp;nbsp; &amp;nbsp; &lt;span style=&quot;color: rgb(86, 156, 214); font-size: 8px;&quot;&gt;unsigned&lt;/span&gt; &lt;span style=&quot;color: rgb(86, 156, 214); font-size: 8px;&quot;&gt;long&lt;/span&gt; vm_start;&lt;/div&gt;&lt;div style=&quot;font-size: 8px;&quot;&gt;&amp;nbsp; &amp;nbsp; &lt;span style=&quot;color: rgb(86, 156, 214); font-size: 8px;&quot;&gt;unsigned&lt;/span&gt; &lt;span style=&quot;color: rgb(86, 156, 214); font-size: 8px;&quot;&gt;long&lt;/span&gt; vm_end;&lt;/div&gt;&lt;div style=&quot;font-size: 8px;&quot;&gt;&lt;span style=&quot;color: rgb(106, 153, 85); font-size: 8px;&quot;&gt;&amp;nbsp; &amp;nbsp; /*...*/&lt;/span&gt;&lt;/div&gt;&lt;div style=&quot;font-size: 8px;&quot;&gt;&amp;nbsp; &amp;nbsp; &lt;span style=&quot;color: rgb(86, 156, 214); font-size: 8px;&quot;&gt;struct&lt;/span&gt; vm_area_struct&lt;span style=&quot;color: rgb(212, 212, 212); font-size: 8px;&quot;&gt;*&lt;/span&gt; vm_next;&lt;/div&gt;&lt;div style=&quot;font-size: 8px;&quot;&gt;&lt;span style=&quot;color: rgb(106, 153, 85); font-size: 8px;&quot;&gt;&amp;nbsp; &amp;nbsp; /*...*/&lt;/span&gt;&lt;/div&gt;&lt;div style=&quot;font-size: 8px;&quot;&gt;} vm2;&lt;/div&gt;&lt;/div&gt;" style="text;html=1;align=left;verticalAlign=middle;resizable=0;points=[];autosize=1;strokeColor=none;fillColor=none;fontFamily=Comic Sans MS;fontSize=8;" parent="35" vertex="1">
          <mxGeometry width="180" height="180" as="geometry" />
        </mxCell>
        <mxCell id="29" value="" style="whiteSpace=wrap;html=1;strokeWidth=2;fontFamily=Comic Sans MS;fillColor=none;fontColor=#ffffff;strokeColor=#6F0000;fontSize=8;align=left;" parent="35" vertex="1">
          <mxGeometry x="203" y="114" width="70" height="30" as="geometry" />
        </mxCell>
        <mxCell id="25" style="edgeStyle=none;html=1;fontFamily=Comic Sans MS;fillColor=#a20025;strokeColor=#6F0000;strokeWidth=2;exitX=0.5;exitY=1;exitDx=0;exitDy=0;fontSize=8;align=left;" parent="1" source="29" target="24" edge="1">
          <mxGeometry relative="1" as="geometry" />
        </mxCell>
        <mxCell id="37" value="" style="group;fontSize=8;align=left;" parent="1" vertex="1" connectable="0">
          <mxGeometry x="40510" y="5775" width="290" height="180" as="geometry" />
        </mxCell>
        <mxCell id="24" value="&lt;div style=&quot;color: rgb(204, 204, 204); background-color: rgb(31, 31, 31); font-family: Consolas, &amp;quot;Courier New&amp;quot;, monospace; font-size: 8px; line-height: 19px;&quot;&gt;&lt;div style=&quot;font-size: 8px;&quot;&gt;&lt;span style=&quot;color: rgb(86, 156, 214); font-size: 8px;&quot;&gt;struct&lt;/span&gt; vm_area_struct&lt;/div&gt;&lt;div style=&quot;font-size: 8px;&quot;&gt;{&lt;/div&gt;&lt;div style=&quot;font-size: 8px;&quot;&gt;&lt;span style=&quot;color: rgb(106, 153, 85); font-size: 8px;&quot;&gt;&amp;nbsp; &amp;nbsp; /*...*/&lt;/span&gt;&lt;/div&gt;&lt;div style=&quot;font-size: 8px;&quot;&gt;&amp;nbsp; &amp;nbsp; &lt;span style=&quot;color: rgb(86, 156, 214); font-size: 8px;&quot;&gt;unsigned&lt;/span&gt; &lt;span style=&quot;color: rgb(86, 156, 214); font-size: 8px;&quot;&gt;long&lt;/span&gt; vm_start;&lt;/div&gt;&lt;div style=&quot;font-size: 8px;&quot;&gt;&amp;nbsp; &amp;nbsp; &lt;span style=&quot;color: rgb(86, 156, 214); font-size: 8px;&quot;&gt;unsigned&lt;/span&gt; &lt;span style=&quot;color: rgb(86, 156, 214); font-size: 8px;&quot;&gt;long&lt;/span&gt; vm_end;&lt;/div&gt;&lt;div style=&quot;font-size: 8px;&quot;&gt;&lt;span style=&quot;color: rgb(106, 153, 85); font-size: 8px;&quot;&gt;&amp;nbsp; &amp;nbsp; /*...*/&lt;/span&gt;&lt;/div&gt;&lt;div style=&quot;font-size: 8px;&quot;&gt;&amp;nbsp; &amp;nbsp; &lt;span style=&quot;color: rgb(86, 156, 214); font-size: 8px;&quot;&gt;struct&lt;/span&gt; vm_area_struct&lt;span style=&quot;color: rgb(212, 212, 212); font-size: 8px;&quot;&gt;*&lt;/span&gt; vm_next;&lt;/div&gt;&lt;div style=&quot;font-size: 8px;&quot;&gt;&lt;span style=&quot;color: rgb(106, 153, 85); font-size: 8px;&quot;&gt;&amp;nbsp; &amp;nbsp; /*...*/&lt;/span&gt;&lt;/div&gt;&lt;div style=&quot;font-size: 8px;&quot;&gt;} vm3;&lt;/div&gt;&lt;/div&gt;" style="text;html=1;align=left;verticalAlign=middle;resizable=0;points=[];autosize=1;strokeColor=none;fillColor=none;fontFamily=Comic Sans MS;fontSize=8;" parent="37" vertex="1">
          <mxGeometry width="180" height="180" as="geometry" />
        </mxCell>
        <mxCell id="30" value="" style="whiteSpace=wrap;html=1;strokeWidth=2;fontFamily=Comic Sans MS;fillColor=none;fontColor=#ffffff;strokeColor=#6F0000;fontSize=8;align=left;" parent="37" vertex="1">
          <mxGeometry x="203" y="114" width="70" height="30" as="geometry" />
        </mxCell>
        <mxCell id="31" style="edgeStyle=none;html=1;exitX=0.5;exitY=1;exitDx=0;exitDy=0;strokeWidth=2;fontFamily=Comic Sans MS;fillColor=#a20025;strokeColor=#6F0000;fontSize=8;align=left;" parent="1" source="30" target="33" edge="1">
          <mxGeometry relative="1" as="geometry">
            <mxPoint x="40700" y="6010" as="targetPoint" />
          </mxGeometry>
        </mxCell>
        <mxCell id="38" value="" style="shape=singleArrow;whiteSpace=wrap;html=1;arrowWidth=0.19903295444616256;arrowSize=0.14836784449338059;strokeWidth=2;fontFamily=Comic Sans MS;fontSize=8;fillColor=none;rotation=-205;align=left;" parent="1" vertex="1">
          <mxGeometry x="40390" y="5690" width="150" height="60" as="geometry" />
        </mxCell>
        <mxCell id="40" value="&lt;b style=&quot;font-size: 8px;&quot;&gt;更细的划分&lt;/b&gt;" style="text;html=1;align=left;verticalAlign=middle;resizable=0;points=[];autosize=1;strokeColor=none;fillColor=none;fontFamily=Comic Sans MS;fontSize=8;" parent="1" vertex="1">
          <mxGeometry x="40435" y="5710" width="60" height="20" as="geometry" />
        </mxCell>
        <mxCell id="60" style="edgeStyle=none;html=1;exitX=1;exitY=0.5;exitDx=0;exitDy=0;strokeWidth=2;fontFamily=Comic Sans MS;fontSize=8;entryX=0;entryY=0.5;entryDx=0;entryDy=0;align=left;" parent="1" source="49" target="51" edge="1">
          <mxGeometry relative="1" as="geometry">
            <mxPoint x="40350" y="6210" as="targetPoint" />
          </mxGeometry>
        </mxCell>
        <mxCell id="61" style="edgeStyle=none;html=1;exitX=1;exitY=0.5;exitDx=0;exitDy=0;entryX=0;entryY=0.5;entryDx=0;entryDy=0;strokeWidth=2;fontFamily=Comic Sans MS;fontSize=8;align=left;" parent="1" source="50" target="66" edge="1">
          <mxGeometry relative="1" as="geometry" />
        </mxCell>
        <mxCell id="64" style="edgeStyle=none;html=1;exitX=1;exitY=0.5;exitDx=0;exitDy=0;entryX=0;entryY=0.5;entryDx=0;entryDy=0;strokeWidth=2;fontFamily=Comic Sans MS;fontSize=8;align=left;" parent="1" source="51" target="46" edge="1">
          <mxGeometry relative="1" as="geometry" />
        </mxCell>
        <mxCell id="51" value="" style="whiteSpace=wrap;html=1;strokeWidth=2;fontFamily=Comic Sans MS;fontSize=8;fillColor=#a20025;fontStyle=1;fontColor=#ffffff;strokeColor=#6F0000;align=left;" parent="1" vertex="1">
          <mxGeometry x="40380" y="6190" width="80" height="20" as="geometry" />
        </mxCell>
        <mxCell id="65" style="edgeStyle=none;html=1;exitX=1;exitY=0.5;exitDx=0;exitDy=0;entryX=0;entryY=0.5;entryDx=0;entryDy=0;strokeWidth=2;fontFamily=Comic Sans MS;fontSize=8;align=left;" parent="1" source="52" target="46" edge="1">
          <mxGeometry relative="1" as="geometry" />
        </mxCell>
        <mxCell id="52" value="" style="whiteSpace=wrap;html=1;strokeWidth=2;fontFamily=Comic Sans MS;fontSize=8;fillColor=#a20025;fontStyle=1;fontColor=#ffffff;strokeColor=#6F0000;align=left;" parent="1" vertex="1">
          <mxGeometry x="40380" y="6330" width="80" height="20" as="geometry" />
        </mxCell>
        <mxCell id="62" style="edgeStyle=none;html=1;exitX=1;exitY=0.5;exitDx=0;exitDy=0;entryX=0;entryY=0.5;entryDx=0;entryDy=0;strokeWidth=2;fontFamily=Comic Sans MS;fontSize=8;align=left;" parent="1" source="54" target="52" edge="1">
          <mxGeometry relative="1" as="geometry" />
        </mxCell>
        <mxCell id="63" style="edgeStyle=none;html=1;exitX=1;exitY=0.5;exitDx=0;exitDy=0;strokeWidth=2;fontFamily=Comic Sans MS;fontSize=8;entryX=0;entryY=0.5;entryDx=0;entryDy=0;align=left;" parent="1" source="55" target="72" edge="1">
          <mxGeometry relative="1" as="geometry">
            <mxPoint x="40380" y="6345" as="targetPoint" />
          </mxGeometry>
        </mxCell>
        <mxCell id="73" style="edgeStyle=none;html=1;exitX=1;exitY=0.5;exitDx=0;exitDy=0;entryX=0;entryY=0.5;entryDx=0;entryDy=0;strokeWidth=2;fontFamily=Comic Sans MS;fontSize=8;align=left;" parent="1" source="66" target="44" edge="1">
          <mxGeometry relative="1" as="geometry" />
        </mxCell>
        <mxCell id="66" value="" style="whiteSpace=wrap;html=1;strokeWidth=2;fontFamily=Comic Sans MS;fontSize=8;fillColor=#0050ef;fontStyle=1;fontColor=#ffffff;strokeColor=#001DBC;align=left;" parent="1" vertex="1">
          <mxGeometry x="40380" y="6210" width="80" height="20" as="geometry" />
        </mxCell>
        <mxCell id="67" value="&lt;span style=&quot;font-size: 8px;&quot;&gt;父进程页表&lt;/span&gt;" style="text;html=1;align=left;verticalAlign=middle;resizable=0;points=[];autosize=1;strokeColor=none;fillColor=none;fontSize=8;fontFamily=Comic Sans MS;fontStyle=1" parent="1" vertex="1">
          <mxGeometry x="40390" y="6165" width="60" height="20" as="geometry" />
        </mxCell>
        <mxCell id="69" value="&lt;span style=&quot;font-size: 8px;&quot;&gt;子进程页表&lt;/span&gt;" style="text;html=1;align=left;verticalAlign=middle;resizable=0;points=[];autosize=1;strokeColor=none;fillColor=none;fontSize=8;fontFamily=Comic Sans MS;fontStyle=1" parent="1" vertex="1">
          <mxGeometry x="40390" y="6305" width="60" height="20" as="geometry" />
        </mxCell>
        <mxCell id="74" style="edgeStyle=none;html=1;exitX=1;exitY=0.75;exitDx=0;exitDy=0;entryX=0;entryY=0.5;entryDx=0;entryDy=0;strokeWidth=2;fontFamily=Comic Sans MS;fontSize=8;align=left;" parent="1" source="72" target="44" edge="1">
          <mxGeometry relative="1" as="geometry" />
        </mxCell>
        <mxCell id="72" value="" style="whiteSpace=wrap;html=1;strokeWidth=2;fontFamily=Comic Sans MS;fontSize=8;fillColor=#0050ef;fontStyle=1;fontColor=#ffffff;strokeColor=#001DBC;align=left;" parent="1" vertex="1">
          <mxGeometry x="40380" y="6350" width="80" height="20" as="geometry" />
        </mxCell>
        <mxCell id="78" value="修改内容之前" style="text;html=1;align=left;verticalAlign=middle;resizable=0;points=[];autosize=1;strokeColor=none;fillColor=none;fontSize=8;fontFamily=Comic Sans MS;fontStyle=1" parent="1" vertex="1">
          <mxGeometry x="40385" y="6115" width="70" height="20" as="geometry" />
        </mxCell>
        <mxCell id="79" value="修改内容之后" style="text;html=1;align=left;verticalAlign=middle;resizable=0;points=[];autosize=1;strokeColor=none;fillColor=none;fontSize=8;fontFamily=Comic Sans MS;fontStyle=1" parent="1" vertex="1">
          <mxGeometry x="40760" y="6115" width="70" height="20" as="geometry" />
        </mxCell>
        <mxCell id="49" value="数据" style="whiteSpace=wrap;html=1;strokeWidth=2;fontFamily=Comic Sans MS;fontSize=8;fillColor=#a20025;fontStyle=1;fontColor=#ffffff;strokeColor=#6F0000;align=left;" parent="1" vertex="1">
          <mxGeometry x="40250" y="6170" width="80" height="40" as="geometry" />
        </mxCell>
        <mxCell id="50" value="代码" style="whiteSpace=wrap;html=1;strokeWidth=2;fontFamily=Comic Sans MS;fontSize=8;fillColor=#0050ef;fontStyle=1;fontColor=#ffffff;strokeColor=#001DBC;align=left;" parent="1" vertex="1">
          <mxGeometry x="40250" y="6210" width="80" height="40" as="geometry" />
        </mxCell>
        <mxCell id="56" value="&lt;span style=&quot;font-size: 8px;&quot;&gt;虚拟内存&lt;/span&gt;" style="text;html=1;align=left;verticalAlign=middle;resizable=0;points=[];autosize=1;strokeColor=none;fillColor=none;fontSize=8;fontFamily=Comic Sans MS;fontStyle=1" parent="1" vertex="1">
          <mxGeometry x="40260" y="6145" width="60" height="20" as="geometry" />
        </mxCell>
        <mxCell id="54" value="数据" style="whiteSpace=wrap;html=1;strokeWidth=2;fontFamily=Comic Sans MS;fontSize=8;fillColor=#a20025;fontStyle=1;fontColor=#ffffff;strokeColor=#6F0000;align=left;" parent="1" vertex="1">
          <mxGeometry x="40250" y="6315" width="80" height="40" as="geometry" />
        </mxCell>
        <mxCell id="55" value="代码" style="whiteSpace=wrap;html=1;strokeWidth=2;fontFamily=Comic Sans MS;fontSize=8;fillColor=#0050ef;fontStyle=1;fontColor=#ffffff;strokeColor=#001DBC;align=left;" parent="1" vertex="1">
          <mxGeometry x="40250" y="6355" width="80" height="40" as="geometry" />
        </mxCell>
        <mxCell id="57" value="&lt;span style=&quot;font-size: 8px;&quot;&gt;虚拟内存&lt;/span&gt;" style="text;html=1;align=left;verticalAlign=middle;resizable=0;points=[];autosize=1;strokeColor=none;fillColor=none;fontSize=8;fontFamily=Comic Sans MS;fontStyle=1" parent="1" vertex="1">
          <mxGeometry x="40260" y="6290" width="60" height="20" as="geometry" />
        </mxCell>
        <mxCell id="43" value="&lt;span style=&quot;font-size: 8px;&quot;&gt;物理内存页&lt;/span&gt;" style="text;html=1;align=left;verticalAlign=middle;resizable=0;points=[];autosize=1;strokeColor=none;fillColor=none;fontSize=8;fontFamily=Comic Sans MS;fontStyle=1" parent="1" vertex="1">
          <mxGeometry x="40530" y="6155" width="60" height="20" as="geometry" />
        </mxCell>
        <mxCell id="44" value="存储父代码" style="whiteSpace=wrap;html=1;strokeWidth=2;fontFamily=Comic Sans MS;fontSize=8;fillColor=#0050ef;fontStyle=1;fontColor=#ffffff;strokeColor=#001DBC;align=left;" parent="1" vertex="1">
          <mxGeometry x="40520" y="6220" width="80" height="40" as="geometry" />
        </mxCell>
        <mxCell id="46" value="存储父数据" style="whiteSpace=wrap;html=1;strokeWidth=2;fontFamily=Comic Sans MS;fontSize=8;fillColor=#a20025;fontStyle=1;fontColor=#ffffff;strokeColor=#6F0000;align=left;" parent="1" vertex="1">
          <mxGeometry x="40520" y="6300" width="80" height="40" as="geometry" />
        </mxCell>
        <mxCell id="47" value="" style="whiteSpace=wrap;html=1;strokeWidth=2;fontFamily=Comic Sans MS;fontSize=8;fillColor=none;fontStyle=1;align=left;" parent="1" vertex="1">
          <mxGeometry x="40520" y="6340" width="80" height="40" as="geometry" />
        </mxCell>
        <mxCell id="48" value="" style="whiteSpace=wrap;html=1;strokeWidth=2;fontFamily=Comic Sans MS;fontSize=8;fillColor=none;fontStyle=1;align=left;" parent="1" vertex="1">
          <mxGeometry x="40520" y="6380" width="80" height="40" as="geometry" />
        </mxCell>
        <mxCell id="42" value="" style="whiteSpace=wrap;html=1;strokeWidth=2;fontFamily=Comic Sans MS;fontSize=8;fillColor=none;fontStyle=1;align=left;" parent="1" vertex="1">
          <mxGeometry x="40520" y="6180" width="80" height="40" as="geometry" />
        </mxCell>
        <mxCell id="45" value="" style="whiteSpace=wrap;html=1;strokeWidth=2;fontFamily=Comic Sans MS;fontSize=8;fillColor=none;fontStyle=1;align=left;" parent="1" vertex="1">
          <mxGeometry x="40520" y="6260" width="80" height="40" as="geometry" />
        </mxCell>
        <mxCell id="134" style="edgeStyle=none;html=1;exitX=1;exitY=0.5;exitDx=0;exitDy=0;strokeWidth=2;fontFamily=Comic Sans MS;fontSize=8;entryX=0;entryY=0.5;entryDx=0;entryDy=0;align=left;" parent="1" source="148" target="137" edge="1">
          <mxGeometry relative="1" as="geometry">
            <mxPoint x="40740" y="6210" as="targetPoint" />
          </mxGeometry>
        </mxCell>
        <mxCell id="135" style="edgeStyle=none;html=1;exitX=1;exitY=0.5;exitDx=0;exitDy=0;entryX=0;entryY=0.5;entryDx=0;entryDy=0;strokeWidth=2;fontFamily=Comic Sans MS;fontSize=8;align=left;" parent="1" source="149" target="143" edge="1">
          <mxGeometry relative="1" as="geometry" />
        </mxCell>
        <mxCell id="136" style="edgeStyle=none;html=1;exitX=1;exitY=0.5;exitDx=0;exitDy=0;entryX=0;entryY=0.5;entryDx=0;entryDy=0;strokeWidth=2;fontFamily=Comic Sans MS;fontSize=8;align=left;" parent="1" source="137" target="156" edge="1">
          <mxGeometry relative="1" as="geometry" />
        </mxCell>
        <mxCell id="137" value="" style="whiteSpace=wrap;html=1;strokeWidth=2;fontFamily=Comic Sans MS;fontSize=8;fillColor=#a20025;fontStyle=1;fontColor=#ffffff;strokeColor=#6F0000;align=left;" parent="1" vertex="1">
          <mxGeometry x="40770" y="6190" width="80" height="20" as="geometry" />
        </mxCell>
        <mxCell id="138" style="edgeStyle=none;html=1;exitX=1;exitY=0.5;exitDx=0;exitDy=0;entryX=0;entryY=0.5;entryDx=0;entryDy=0;strokeWidth=2;fontFamily=Comic Sans MS;fontSize=8;align=left;" parent="1" source="139" target="158" edge="1">
          <mxGeometry relative="1" as="geometry" />
        </mxCell>
        <mxCell id="139" value="" style="whiteSpace=wrap;html=1;strokeWidth=2;fontFamily=Comic Sans MS;fontSize=8;fillColor=#e3c800;fontStyle=1;fontColor=#000000;strokeColor=#B09500;align=left;" parent="1" vertex="1">
          <mxGeometry x="40770" y="6330" width="80" height="20" as="geometry" />
        </mxCell>
        <mxCell id="140" style="edgeStyle=none;html=1;exitX=1;exitY=0.5;exitDx=0;exitDy=0;entryX=0;entryY=0.5;entryDx=0;entryDy=0;strokeWidth=2;fontFamily=Comic Sans MS;fontSize=8;align=left;" parent="1" source="151" target="139" edge="1">
          <mxGeometry relative="1" as="geometry" />
        </mxCell>
        <mxCell id="141" style="edgeStyle=none;html=1;exitX=1;exitY=0.5;exitDx=0;exitDy=0;strokeWidth=2;fontFamily=Comic Sans MS;fontSize=8;entryX=0;entryY=0.5;entryDx=0;entryDy=0;align=left;" parent="1" source="152" target="147" edge="1">
          <mxGeometry relative="1" as="geometry">
            <mxPoint x="40770" y="6345" as="targetPoint" />
          </mxGeometry>
        </mxCell>
        <mxCell id="142" style="edgeStyle=none;html=1;exitX=1;exitY=0.5;exitDx=0;exitDy=0;entryX=0;entryY=0.5;entryDx=0;entryDy=0;strokeWidth=2;fontFamily=Comic Sans MS;fontSize=8;align=left;" parent="1" source="143" target="155" edge="1">
          <mxGeometry relative="1" as="geometry" />
        </mxCell>
        <mxCell id="143" value="" style="whiteSpace=wrap;html=1;strokeWidth=2;fontFamily=Comic Sans MS;fontSize=8;fillColor=#0050ef;fontStyle=1;fontColor=#ffffff;strokeColor=#001DBC;align=left;" parent="1" vertex="1">
          <mxGeometry x="40770" y="6210" width="80" height="20" as="geometry" />
        </mxCell>
        <mxCell id="144" value="&lt;span style=&quot;font-size: 8px;&quot;&gt;父进程页表&lt;/span&gt;" style="text;html=1;align=left;verticalAlign=middle;resizable=0;points=[];autosize=1;strokeColor=none;fillColor=none;fontSize=8;fontFamily=Comic Sans MS;fontStyle=1" parent="1" vertex="1">
          <mxGeometry x="40780" y="6165" width="60" height="20" as="geometry" />
        </mxCell>
        <mxCell id="145" value="&lt;span style=&quot;font-size: 8px;&quot;&gt;子进程页表&lt;/span&gt;" style="text;html=1;align=left;verticalAlign=middle;resizable=0;points=[];autosize=1;strokeColor=none;fillColor=none;fontSize=8;fontFamily=Comic Sans MS;fontStyle=1" parent="1" vertex="1">
          <mxGeometry x="40780" y="6305" width="60" height="20" as="geometry" />
        </mxCell>
        <mxCell id="146" style="edgeStyle=none;html=1;exitX=1;exitY=0.75;exitDx=0;exitDy=0;entryX=0;entryY=0.5;entryDx=0;entryDy=0;strokeWidth=2;fontFamily=Comic Sans MS;fontSize=8;align=left;" parent="1" source="147" target="155" edge="1">
          <mxGeometry relative="1" as="geometry" />
        </mxCell>
        <mxCell id="147" value="" style="whiteSpace=wrap;html=1;strokeWidth=2;fontFamily=Comic Sans MS;fontSize=8;fillColor=#0050ef;fontStyle=1;fontColor=#ffffff;strokeColor=#001DBC;align=left;" parent="1" vertex="1">
          <mxGeometry x="40770" y="6350" width="80" height="20" as="geometry" />
        </mxCell>
        <mxCell id="148" value="数据" style="whiteSpace=wrap;html=1;strokeWidth=2;fontFamily=Comic Sans MS;fontSize=8;fillColor=#a20025;fontStyle=1;fontColor=#ffffff;strokeColor=#6F0000;align=left;" parent="1" vertex="1">
          <mxGeometry x="40640" y="6170" width="80" height="40" as="geometry" />
        </mxCell>
        <mxCell id="149" value="代码" style="whiteSpace=wrap;html=1;strokeWidth=2;fontFamily=Comic Sans MS;fontSize=8;fillColor=#0050ef;fontStyle=1;fontColor=#ffffff;strokeColor=#001DBC;align=left;" parent="1" vertex="1">
          <mxGeometry x="40640" y="6210" width="80" height="40" as="geometry" />
        </mxCell>
        <mxCell id="150" value="&lt;span style=&quot;font-size: 8px;&quot;&gt;虚拟内存&lt;/span&gt;" style="text;html=1;align=left;verticalAlign=middle;resizable=0;points=[];autosize=1;strokeColor=none;fillColor=none;fontSize=8;fontFamily=Comic Sans MS;fontStyle=1" parent="1" vertex="1">
          <mxGeometry x="40650" y="6145" width="60" height="20" as="geometry" />
        </mxCell>
        <mxCell id="151" value="数据" style="whiteSpace=wrap;html=1;strokeWidth=2;fontFamily=Comic Sans MS;fontSize=8;fillColor=#e3c800;fontStyle=1;fontColor=#000000;strokeColor=#B09500;align=left;" parent="1" vertex="1">
          <mxGeometry x="40640" y="6315" width="80" height="40" as="geometry" />
        </mxCell>
        <mxCell id="152" value="代码" style="whiteSpace=wrap;html=1;strokeWidth=2;fontFamily=Comic Sans MS;fontSize=8;fillColor=#0050ef;fontStyle=1;fontColor=#ffffff;strokeColor=#001DBC;align=left;" parent="1" vertex="1">
          <mxGeometry x="40640" y="6355" width="80" height="40" as="geometry" />
        </mxCell>
        <mxCell id="153" value="&lt;span style=&quot;font-size: 8px;&quot;&gt;虚拟内存&lt;/span&gt;" style="text;html=1;align=left;verticalAlign=middle;resizable=0;points=[];autosize=1;strokeColor=none;fillColor=none;fontSize=8;fontFamily=Comic Sans MS;fontStyle=1" parent="1" vertex="1">
          <mxGeometry x="40650" y="6290" width="60" height="20" as="geometry" />
        </mxCell>
        <mxCell id="154" value="&lt;span style=&quot;font-size: 8px;&quot;&gt;物理内存页&lt;/span&gt;" style="text;html=1;align=left;verticalAlign=middle;resizable=0;points=[];autosize=1;strokeColor=none;fillColor=none;fontSize=8;fontFamily=Comic Sans MS;fontStyle=1" parent="1" vertex="1">
          <mxGeometry x="40920" y="6155" width="60" height="20" as="geometry" />
        </mxCell>
        <mxCell id="155" value="存储父代码" style="whiteSpace=wrap;html=1;strokeWidth=2;fontFamily=Comic Sans MS;fontSize=8;fillColor=#0050ef;fontStyle=1;fontColor=#ffffff;strokeColor=#001DBC;align=left;" parent="1" vertex="1">
          <mxGeometry x="40910" y="6220" width="80" height="40" as="geometry" />
        </mxCell>
        <mxCell id="156" value="存储父数据" style="whiteSpace=wrap;html=1;strokeWidth=2;fontFamily=Comic Sans MS;fontSize=8;fillColor=#a20025;fontStyle=1;fontColor=#ffffff;strokeColor=#6F0000;align=left;" parent="1" vertex="1">
          <mxGeometry x="40910" y="6300" width="80" height="40" as="geometry" />
        </mxCell>
        <mxCell id="158" value="存储子数据" style="whiteSpace=wrap;html=1;strokeWidth=2;fontFamily=Comic Sans MS;fontSize=8;fillColor=#e3c800;fontStyle=1;fontColor=#000000;strokeColor=#B09500;align=left;" parent="1" vertex="1">
          <mxGeometry x="40910" y="6380" width="80" height="40" as="geometry" />
        </mxCell>
        <mxCell id="159" value="" style="whiteSpace=wrap;html=1;strokeWidth=2;fontFamily=Comic Sans MS;fontSize=8;fillColor=none;fontStyle=1;align=left;" parent="1" vertex="1">
          <mxGeometry x="40910" y="6180" width="80" height="40" as="geometry" />
        </mxCell>
        <mxCell id="160" value="" style="whiteSpace=wrap;html=1;strokeWidth=2;fontFamily=Comic Sans MS;fontSize=8;fillColor=none;fontStyle=1;align=left;" parent="1" vertex="1">
          <mxGeometry x="40910" y="6260" width="80" height="40" as="geometry" />
        </mxCell>
        <mxCell id="157" value="" style="whiteSpace=wrap;html=1;strokeWidth=2;fontFamily=Comic Sans MS;fontSize=8;fillColor=none;fontStyle=1;align=left;" parent="1" vertex="1">
          <mxGeometry x="40910" y="6340" width="80" height="40" as="geometry" />
        </mxCell>
        <mxCell id="wYhOlogaTFHEyGEaMV4G-160" value="&lt;div style=&quot;color: rgb(204, 204, 204); background-color: rgb(31, 31, 31); font-family: Consolas, &amp;quot;Courier New&amp;quot;, monospace; font-weight: normal; font-size: 8px; line-height: 19px;&quot;&gt;&lt;div style=&quot;font-size: 8px;&quot;&gt;&lt;span style=&quot;color: rgb(197, 134, 192); font-size: 8px;&quot;&gt;#include&lt;/span&gt;&lt;span style=&quot;color: rgb(86, 156, 214); font-size: 8px;&quot;&gt; &lt;/span&gt;&lt;span style=&quot;color: rgb(206, 145, 120); font-size: 8px;&quot;&gt;&amp;lt;stdio.h&amp;gt;&lt;/span&gt;&lt;/div&gt;&lt;div style=&quot;font-size: 8px;&quot;&gt;&lt;span style=&quot;color: rgb(197, 134, 192); font-size: 8px;&quot;&gt;#include&lt;/span&gt;&lt;span style=&quot;color: rgb(86, 156, 214); font-size: 8px;&quot;&gt; &lt;/span&gt;&lt;span style=&quot;color: rgb(206, 145, 120); font-size: 8px;&quot;&gt;&amp;lt;unistd.h&amp;gt;&lt;/span&gt;&lt;/div&gt;&lt;div style=&quot;font-size: 8px;&quot;&gt;&lt;span style=&quot;color: rgb(86, 156, 214); font-size: 8px;&quot;&gt;int&lt;/span&gt;&lt;span style=&quot;color: rgb(204, 204, 204); font-size: 8px;&quot;&gt; &lt;/span&gt;&lt;span style=&quot;color: rgb(220, 220, 170); font-size: 8px;&quot;&gt;main&lt;/span&gt;&lt;span style=&quot;color: rgb(204, 204, 204); font-size: 8px;&quot;&gt;()&lt;/span&gt;&lt;/div&gt;&lt;div style=&quot;font-size: 8px;&quot;&gt;&lt;span style=&quot;color: rgb(204, 204, 204); font-size: 8px;&quot;&gt;{&lt;/span&gt;&lt;/div&gt;&lt;div style=&quot;font-size: 8px;&quot;&gt;&lt;span style=&quot;color: rgb(204, 204, 204); font-size: 8px;&quot;&gt;&amp;nbsp; &amp;nbsp; &lt;/span&gt;&lt;span style=&quot;color: rgb(220, 220, 170); font-size: 8px;&quot;&gt;printf&lt;/span&gt;&lt;span style=&quot;color: rgb(204, 204, 204); font-size: 8px;&quot;&gt;(&lt;/span&gt;&lt;span style=&quot;color: rgb(206, 145, 120); font-size: 8px;&quot;&gt;&quot;pid: &lt;/span&gt;&lt;span style=&quot;color: rgb(156, 220, 254); font-size: 8px;&quot;&gt;%d&lt;/span&gt;&lt;span style=&quot;color: rgb(206, 145, 120); font-size: 8px;&quot;&gt;, exec command begin&lt;/span&gt;&lt;span style=&quot;color: rgb(215, 186, 125); font-size: 8px;&quot;&gt;\n&lt;/span&gt;&lt;span style=&quot;color: rgb(206, 145, 120); font-size: 8px;&quot;&gt;&quot;&lt;/span&gt;&lt;span style=&quot;color: rgb(204, 204, 204); font-size: 8px;&quot;&gt;, &lt;/span&gt;&lt;span style=&quot;color: rgb(220, 220, 170); font-size: 8px;&quot;&gt;getpid&lt;/span&gt;&lt;span style=&quot;color: rgb(204, 204, 204); font-size: 8px;&quot;&gt;());&lt;/span&gt;&lt;/div&gt;&lt;div style=&quot;font-size: 8px;&quot;&gt;&lt;span style=&quot;color: rgb(204, 204, 204); font-size: 8px;&quot;&gt;&amp;nbsp; &amp;nbsp; &lt;/span&gt;&lt;span style=&quot;color: rgb(220, 220, 170); font-size: 8px;&quot;&gt;execl&lt;/span&gt;&lt;span style=&quot;color: rgb(204, 204, 204); font-size: 8px;&quot;&gt;(&lt;/span&gt;&lt;span style=&quot;color: rgb(206, 145, 120); font-size: 8px;&quot;&gt;&quot;/usr/bin/ls&quot;&lt;/span&gt;&lt;span style=&quot;color: rgb(204, 204, 204); font-size: 8px;&quot;&gt;, &lt;/span&gt;&lt;span style=&quot;color: rgb(206, 145, 120); font-size: 8px;&quot;&gt;&quot;ls&quot;&lt;/span&gt;&lt;span style=&quot;color: rgb(204, 204, 204); font-size: 8px;&quot;&gt;, &lt;/span&gt;&lt;span style=&quot;color: rgb(206, 145, 120); font-size: 8px;&quot;&gt;&quot;-a&quot;&lt;/span&gt;&lt;span style=&quot;color: rgb(204, 204, 204); font-size: 8px;&quot;&gt;, &lt;/span&gt;&lt;span style=&quot;color: rgb(206, 145, 120); font-size: 8px;&quot;&gt;&quot;-l&quot;&lt;/span&gt;&lt;span style=&quot;color: rgb(204, 204, 204); font-size: 8px;&quot;&gt;, &lt;/span&gt;&lt;span style=&quot;color: rgb(86, 156, 214); font-size: 8px;&quot;&gt;NULL&lt;/span&gt;&lt;span style=&quot;color: rgb(204, 204, 204); font-size: 8px;&quot;&gt;);&lt;/span&gt;&lt;/div&gt;&lt;div style=&quot;font-size: 8px;&quot;&gt;&lt;span style=&quot;color: rgb(204, 204, 204); font-size: 8px;&quot;&gt;&amp;nbsp; &amp;nbsp; &lt;/span&gt;&lt;span style=&quot;color: rgb(220, 220, 170); font-size: 8px;&quot;&gt;printf&lt;/span&gt;&lt;span style=&quot;color: rgb(204, 204, 204); font-size: 8px;&quot;&gt;(&lt;/span&gt;&lt;span style=&quot;color: rgb(206, 145, 120); font-size: 8px;&quot;&gt;&quot;pid: &lt;/span&gt;&lt;span style=&quot;color: rgb(156, 220, 254); font-size: 8px;&quot;&gt;%d&lt;/span&gt;&lt;span style=&quot;color: rgb(206, 145, 120); font-size: 8px;&quot;&gt;, exec command end&lt;/span&gt;&lt;span style=&quot;color: rgb(215, 186, 125); font-size: 8px;&quot;&gt;\n&lt;/span&gt;&lt;span style=&quot;color: rgb(206, 145, 120); font-size: 8px;&quot;&gt;&quot;&lt;/span&gt;&lt;span style=&quot;color: rgb(204, 204, 204); font-size: 8px;&quot;&gt;, &lt;/span&gt;&lt;span style=&quot;color: rgb(220, 220, 170); font-size: 8px;&quot;&gt;getpid&lt;/span&gt;&lt;span style=&quot;color: rgb(204, 204, 204); font-size: 8px;&quot;&gt;());&lt;/span&gt;&lt;/div&gt;&lt;div style=&quot;font-size: 8px;&quot;&gt;&lt;span style=&quot;color: rgb(204, 204, 204); font-size: 8px;&quot;&gt;&amp;nbsp; &amp;nbsp; &lt;/span&gt;&lt;span style=&quot;color: rgb(197, 134, 192); font-size: 8px;&quot;&gt;return&lt;/span&gt;&lt;span style=&quot;color: rgb(204, 204, 204); font-size: 8px;&quot;&gt; &lt;/span&gt;&lt;span style=&quot;color: rgb(181, 206, 168); font-size: 8px;&quot;&gt;0&lt;/span&gt;&lt;span style=&quot;color: rgb(204, 204, 204); font-size: 8px;&quot;&gt;;&lt;/span&gt;&lt;/div&gt;&lt;div style=&quot;font-size: 8px;&quot;&gt;&lt;span style=&quot;color: rgb(204, 204, 204); font-size: 8px;&quot;&gt;}&lt;/span&gt;&lt;/div&gt;&lt;/div&gt;" style="text;whiteSpace=wrap;html=1;fontSize=8;align=left;" parent="1" vertex="1">
          <mxGeometry x="40260" y="6710" width="435" height="180" as="geometry" />
        </mxCell>
        <mxCell id="wYhOlogaTFHEyGEaMV4G-162" style="rounded=0;orthogonalLoop=1;jettySize=auto;html=1;exitX=0.5;exitY=1;exitDx=0;exitDy=0;strokeWidth=2;fontSize=8;align=left;" parent="1" source="wYhOlogaTFHEyGEaMV4G-161" target="wYhOlogaTFHEyGEaMV4G-163" edge="1">
          <mxGeometry relative="1" as="geometry">
            <mxPoint x="40330" y="6960" as="targetPoint" />
          </mxGeometry>
        </mxCell>
        <mxCell id="wYhOlogaTFHEyGEaMV4G-161" value="" style="whiteSpace=wrap;html=1;fillColor=none;fontColor=#ffffff;strokeColor=#FFFFFF;strokeWidth=2;fontSize=8;align=left;" parent="1" vertex="1">
          <mxGeometry x="40329" y="6812" width="110" height="20" as="geometry" />
        </mxCell>
        <mxCell id="wYhOlogaTFHEyGEaMV4G-163" value="找到要替换代码的程序所在地" style="text;html=1;align=left;verticalAlign=middle;resizable=0;points=[];autosize=1;strokeColor=none;fillColor=none;fontFamily=Comic Sans MS;fontStyle=1;fontSize=8;" parent="1" vertex="1">
          <mxGeometry x="40280" y="6895" width="130" height="20" as="geometry" />
        </mxCell>
        <mxCell id="wYhOlogaTFHEyGEaMV4G-166" style="rounded=0;orthogonalLoop=1;jettySize=auto;html=1;exitX=0.5;exitY=1;exitDx=0;exitDy=0;strokeWidth=2;fontSize=8;align=left;" parent="1" source="wYhOlogaTFHEyGEaMV4G-164" target="wYhOlogaTFHEyGEaMV4G-165" edge="1">
          <mxGeometry relative="1" as="geometry" />
        </mxCell>
        <mxCell id="wYhOlogaTFHEyGEaMV4G-164" value="" style="whiteSpace=wrap;html=1;fillColor=none;fontColor=#ffffff;strokeColor=#FFFFFF;strokeWidth=2;fontSize=8;align=left;" parent="1" vertex="1">
          <mxGeometry x="40453" y="6812" width="35" height="20" as="geometry" />
        </mxCell>
        <mxCell id="wYhOlogaTFHEyGEaMV4G-165" value="命令行怎么用该程序，就怎么传递字符，&lt;br style=&quot;font-size: 8px;&quot;&gt;但是要以 NULL 结尾，表示命令结束" style="text;html=1;align=left;verticalAlign=middle;resizable=0;points=[];autosize=1;strokeColor=none;fillColor=none;fontFamily=Comic Sans MS;fontStyle=1;fontSize=8;" parent="1" vertex="1">
          <mxGeometry x="40460" y="6875" width="170" height="30" as="geometry" />
        </mxCell>
        <mxCell id="wYhOlogaTFHEyGEaMV4G-168" style="rounded=0;orthogonalLoop=1;jettySize=auto;html=1;exitX=0.5;exitY=1;exitDx=0;exitDy=0;entryX=0;entryY=0.5;entryDx=0;entryDy=0;strokeWidth=2;fontSize=8;align=left;" parent="1" source="wYhOlogaTFHEyGEaMV4G-167" target="wYhOlogaTFHEyGEaMV4G-169" edge="1">
          <mxGeometry relative="1" as="geometry">
            <mxPoint x="40311" y="7080" as="targetPoint" />
            <Array as="points">
              <mxPoint x="40260" y="7090" />
            </Array>
          </mxGeometry>
        </mxCell>
        <mxCell id="wYhOlogaTFHEyGEaMV4G-167" value="&lt;b style=&quot;font-size: 8px;&quot;&gt;&lt;font face=&quot;Comic Sans MS&quot; style=&quot;font-size: 8px;&quot;&gt;mm_struct&lt;/font&gt;&lt;/b&gt;" style="whiteSpace=wrap;html=1;strokeWidth=2;fontSize=8;align=left;" parent="1" vertex="1">
          <mxGeometry x="40185" y="7020" width="80" height="35" as="geometry" />
        </mxCell>
        <mxCell id="wYhOlogaTFHEyGEaMV4G-170" style="rounded=0;orthogonalLoop=1;jettySize=auto;html=1;exitX=1;exitY=0.25;exitDx=0;exitDy=0;strokeWidth=2;entryX=0;entryY=0.5;entryDx=0;entryDy=0;fontSize=8;align=left;" parent="1" source="wYhOlogaTFHEyGEaMV4G-169" target="wYhOlogaTFHEyGEaMV4G-179" edge="1">
          <mxGeometry relative="1" as="geometry">
            <mxPoint x="40391" y="7010" as="targetPoint" />
            <Array as="points">
              <mxPoint x="40360" y="7000" />
            </Array>
          </mxGeometry>
        </mxCell>
        <mxCell id="wYhOlogaTFHEyGEaMV4G-184" style="rounded=0;orthogonalLoop=1;jettySize=auto;html=1;exitX=1;exitY=0.75;exitDx=0;exitDy=0;entryX=0;entryY=0.5;entryDx=0;entryDy=0;strokeWidth=2;fontSize=8;align=left;" parent="1" source="wYhOlogaTFHEyGEaMV4G-169" target="wYhOlogaTFHEyGEaMV4G-178" edge="1">
          <mxGeometry relative="1" as="geometry" />
        </mxCell>
        <mxCell id="wYhOlogaTFHEyGEaMV4G-169" value="&lt;font face=&quot;Comic Sans MS&quot; style=&quot;font-size: 8px;&quot;&gt;&lt;b style=&quot;font-size: 8px;&quot;&gt;页表&lt;/b&gt;&lt;/font&gt;" style="whiteSpace=wrap;html=1;strokeWidth=2;fontSize=8;align=left;" parent="1" vertex="1">
          <mxGeometry x="40290" y="7055" width="50" height="80" as="geometry" />
        </mxCell>
        <mxCell id="wYhOlogaTFHEyGEaMV4G-181" value="" style="group;fontSize=8;align=left;" parent="1" vertex="1" connectable="0">
          <mxGeometry x="40620" y="6950" width="140" height="140" as="geometry" />
        </mxCell>
        <mxCell id="wYhOlogaTFHEyGEaMV4G-172" value="" style="whiteSpace=wrap;html=1;strokeWidth=2;fontSize=8;align=left;" parent="wYhOlogaTFHEyGEaMV4G-181" vertex="1">
          <mxGeometry width="140" height="140" as="geometry" />
        </mxCell>
        <mxCell id="wYhOlogaTFHEyGEaMV4G-173" value="&lt;font style=&quot;font-size: 8px;&quot; face=&quot;Comic Sans MS&quot;&gt;&lt;b style=&quot;font-size: 8px;&quot;&gt;磁盘&lt;br style=&quot;font-size: 8px;&quot;&gt;（存储程序文件）&lt;/b&gt;&lt;/font&gt;" style="text;html=1;align=left;verticalAlign=middle;resizable=0;points=[];autosize=1;strokeColor=none;fillColor=none;fontSize=8;" parent="wYhOlogaTFHEyGEaMV4G-181" vertex="1">
          <mxGeometry x="25" y="15" width="90" height="30" as="geometry" />
        </mxCell>
        <mxCell id="wYhOlogaTFHEyGEaMV4G-177" value="" style="group;fontSize=8;align=left;" parent="wYhOlogaTFHEyGEaMV4G-181" vertex="1" connectable="0">
          <mxGeometry x="30" y="60" width="80" height="60" as="geometry" />
        </mxCell>
        <mxCell id="wYhOlogaTFHEyGEaMV4G-174" value="&lt;font face=&quot;Comic Sans MS&quot; style=&quot;font-size: 8px;&quot;&gt;&lt;b style=&quot;font-size: 8px;&quot;&gt;ls程序&lt;/b&gt;&lt;/font&gt;" style="whiteSpace=wrap;html=1;strokeWidth=2;fontSize=8;align=left;" parent="wYhOlogaTFHEyGEaMV4G-177" vertex="1">
          <mxGeometry width="80" height="30" as="geometry" />
        </mxCell>
        <mxCell id="wYhOlogaTFHEyGEaMV4G-175" value="&lt;font face=&quot;Comic Sans MS&quot; style=&quot;font-size: 8px;&quot;&gt;&lt;b style=&quot;font-size: 8px;&quot;&gt;代码&lt;/b&gt;&lt;/font&gt;" style="whiteSpace=wrap;html=1;strokeWidth=2;fontSize=8;align=left;" parent="wYhOlogaTFHEyGEaMV4G-177" vertex="1">
          <mxGeometry y="30" width="40" height="30" as="geometry" />
        </mxCell>
        <mxCell id="wYhOlogaTFHEyGEaMV4G-176" value="&lt;font face=&quot;Comic Sans MS&quot; style=&quot;font-size: 8px;&quot;&gt;&lt;b style=&quot;font-size: 8px;&quot;&gt;数据&lt;/b&gt;&lt;/font&gt;" style="whiteSpace=wrap;html=1;strokeWidth=2;fontSize=8;align=left;" parent="wYhOlogaTFHEyGEaMV4G-177" vertex="1">
          <mxGeometry x="40" y="30" width="40" height="30" as="geometry" />
        </mxCell>
        <mxCell id="wYhOlogaTFHEyGEaMV4G-182" style="rounded=0;orthogonalLoop=1;jettySize=auto;html=1;exitX=0;exitY=0.5;exitDx=0;exitDy=0;entryX=1;entryY=0.5;entryDx=0;entryDy=0;strokeWidth=2;fillColor=#a20025;strokeColor=#6F0000;fontSize=8;align=left;" parent="1" source="wYhOlogaTFHEyGEaMV4G-175" target="wYhOlogaTFHEyGEaMV4G-179" edge="1">
          <mxGeometry relative="1" as="geometry">
            <Array as="points">
              <mxPoint x="40580" y="6990" />
            </Array>
          </mxGeometry>
        </mxCell>
        <mxCell id="wYhOlogaTFHEyGEaMV4G-186" value="&lt;b style=&quot;font-size: 8px; background-color: rgb(27, 29, 30);&quot;&gt;&lt;font face=&quot;Comic Sans MS&quot; style=&quot;font-size: 8px;&quot;&gt;调用execl()&lt;br style=&quot;font-size: 8px;&quot;&gt;后&lt;/font&gt;&lt;/b&gt;&lt;b style=&quot;font-size: 8px;&quot;&gt;&lt;font face=&quot;Comic Sans MS&quot; style=&quot;font-size: 8px;&quot;&gt;替换代码&lt;/font&gt;&lt;/b&gt;" style="edgeLabel;html=1;align=left;verticalAlign=middle;resizable=0;points=[];fontSize=8;" parent="wYhOlogaTFHEyGEaMV4G-182" vertex="1" connectable="0">
          <mxGeometry x="0.1906" y="2" relative="1" as="geometry">
            <mxPoint x="-3" y="-7" as="offset" />
          </mxGeometry>
        </mxCell>
        <mxCell id="wYhOlogaTFHEyGEaMV4G-183" style="rounded=0;orthogonalLoop=1;jettySize=auto;html=1;exitX=0.5;exitY=1;exitDx=0;exitDy=0;entryX=1;entryY=0.5;entryDx=0;entryDy=0;strokeWidth=2;fillColor=#a20025;strokeColor=#6F0000;fontSize=8;align=left;" parent="1" source="wYhOlogaTFHEyGEaMV4G-176" target="wYhOlogaTFHEyGEaMV4G-178" edge="1">
          <mxGeometry relative="1" as="geometry">
            <Array as="points">
              <mxPoint x="40680" y="7130" />
              <mxPoint x="40610" y="7160" />
            </Array>
          </mxGeometry>
        </mxCell>
        <mxCell id="wYhOlogaTFHEyGEaMV4G-188" value="&lt;b style=&quot;font-size: 8px; background-color: rgb(27, 29, 30);&quot;&gt;&lt;font face=&quot;Comic Sans MS&quot; style=&quot;font-size: 8px;&quot;&gt;调用execl()&lt;br style=&quot;font-size: 8px;&quot;&gt;后&lt;/font&gt;&lt;/b&gt;&lt;b style=&quot;font-size: 8px;&quot;&gt;&lt;font face=&quot;Comic Sans MS&quot; style=&quot;font-size: 8px;&quot;&gt;替换数据&lt;/font&gt;&lt;/b&gt;" style="edgeLabel;html=1;align=left;verticalAlign=middle;resizable=0;points=[];fontSize=8;" parent="wYhOlogaTFHEyGEaMV4G-183" vertex="1" connectable="0">
          <mxGeometry x="0.3352" y="-3" relative="1" as="geometry">
            <mxPoint x="32" y="-1" as="offset" />
          </mxGeometry>
        </mxCell>
        <mxCell id="wYhOlogaTFHEyGEaMV4G-185" value="" style="group;fontSize=8;align=left;" parent="1" vertex="1" connectable="0">
          <mxGeometry x="40400" y="6950" width="80" height="220" as="geometry" />
        </mxCell>
        <mxCell id="wYhOlogaTFHEyGEaMV4G-178" value="&lt;font face=&quot;Comic Sans MS&quot; style=&quot;font-size: 8px;&quot;&gt;&lt;b style=&quot;font-size: 8px;&quot;&gt;原进程数据&lt;/b&gt;&lt;/font&gt;" style="whiteSpace=wrap;html=1;strokeWidth=2;fontSize=8;align=left;" parent="wYhOlogaTFHEyGEaMV4G-185" vertex="1">
          <mxGeometry y="190" width="80" height="30" as="geometry" />
        </mxCell>
        <mxCell id="wYhOlogaTFHEyGEaMV4G-180" value="&lt;font face=&quot;Comic Sans MS&quot; style=&quot;font-size: 8px;&quot;&gt;&lt;b style=&quot;font-size: 8px;&quot;&gt;物理内存&lt;/b&gt;&lt;/font&gt;" style="whiteSpace=wrap;html=1;strokeWidth=2;fontSize=8;align=left;" parent="wYhOlogaTFHEyGEaMV4G-185" vertex="1">
          <mxGeometry y="30" width="80" height="160" as="geometry" />
        </mxCell>
        <mxCell id="wYhOlogaTFHEyGEaMV4G-179" value="&lt;font face=&quot;Comic Sans MS&quot; style=&quot;font-size: 8px;&quot;&gt;&lt;b style=&quot;font-size: 8px;&quot;&gt;原进程代码&lt;/b&gt;&lt;/font&gt;" style="whiteSpace=wrap;html=1;strokeWidth=2;fontSize=8;align=left;" parent="1" vertex="1">
          <mxGeometry x="40400" y="6950" width="80" height="30" as="geometry" />
        </mxCell>
        <mxCell id="9v2BSST4CMqP9wgEFu_h-161" value="可执行程序（ELF 格式文件）" style="text;html=1;align=left;verticalAlign=middle;resizable=0;points=[];autosize=1;strokeColor=none;fillColor=none;fontFamily=Comic Sans MS;fontStyle=1;strokeWidth=2;fontSize=8;" parent="1" vertex="1">
          <mxGeometry x="40495" y="7455" width="130" height="20" as="geometry" />
        </mxCell>
        <mxCell id="9v2BSST4CMqP9wgEFu_h-162" value="代码区" style="rounded=0;whiteSpace=wrap;html=1;fontFamily=Comic Sans MS;fontStyle=1;strokeWidth=2;fontSize=8;align=left;" parent="1" vertex="1">
          <mxGeometry x="40480" y="7620" width="160" height="20" as="geometry" />
        </mxCell>
        <mxCell id="9v2BSST4CMqP9wgEFu_h-163" value="全局数据区" style="rounded=0;whiteSpace=wrap;html=1;fontFamily=Comic Sans MS;fontStyle=1;strokeWidth=2;fontSize=8;align=left;" parent="1" vertex="1">
          <mxGeometry x="40480" y="7580" width="160" height="20" as="geometry" />
        </mxCell>
        <mxCell id="9v2BSST4CMqP9wgEFu_h-164" value="只读数据区" style="rounded=0;whiteSpace=wrap;html=1;fontFamily=Comic Sans MS;fontStyle=1;strokeWidth=2;fontSize=8;align=left;" parent="1" vertex="1">
          <mxGeometry x="40480" y="7600" width="160" height="20" as="geometry" />
        </mxCell>
        <mxCell id="9v2BSST4CMqP9wgEFu_h-166" value="堆栈是动态运行的，这个文件里没有" style="text;html=1;align=left;verticalAlign=middle;resizable=0;points=[];autosize=1;strokeColor=none;fillColor=none;fontFamily=Comic Sans MS;fontStyle=1;strokeWidth=2;fontSize=8;" parent="1" vertex="1">
          <mxGeometry x="40485" y="7645" width="150" height="20" as="geometry" />
        </mxCell>
        <mxCell id="9v2BSST4CMqP9wgEFu_h-167" value="各类属性字段" style="rounded=0;whiteSpace=wrap;html=1;fontFamily=Comic Sans MS;fontStyle=1;strokeWidth=2;fontSize=8;align=left;" parent="1" vertex="1">
          <mxGeometry x="40480" y="7560" width="160" height="20" as="geometry" />
        </mxCell>
        <mxCell id="9v2BSST4CMqP9wgEFu_h-168" value="类似符号表区域（可以简单理解为，存储了程序所需要各种函数/方法）" style="rounded=0;whiteSpace=wrap;html=1;fontFamily=Comic Sans MS;fontStyle=1;strokeWidth=2;fontSize=8;align=left;" parent="1" vertex="1">
          <mxGeometry x="40480" y="7480" width="160" height="80" as="geometry" />
        </mxCell>
        <mxCell id="9v2BSST4CMqP9wgEFu_h-173" style="edgeStyle=orthogonalEdgeStyle;rounded=0;orthogonalLoop=1;jettySize=auto;html=1;entryX=1;entryY=0.25;entryDx=0;entryDy=0;fontFamily=Comic Sans MS;fontStyle=1;strokeWidth=2;fontSize=8;align=left;" parent="1" source="9v2BSST4CMqP9wgEFu_h-169" target="9v2BSST4CMqP9wgEFu_h-168" edge="1">
          <mxGeometry relative="1" as="geometry" />
        </mxCell>
        <mxCell id="9v2BSST4CMqP9wgEFu_h-169" value=".so" style="rounded=0;whiteSpace=wrap;html=1;fontFamily=Comic Sans MS;fontStyle=1;strokeWidth=2;fontSize=8;align=left;" parent="1" vertex="1">
          <mxGeometry x="40760" y="7480" width="120" height="40" as="geometry" />
        </mxCell>
        <mxCell id="9v2BSST4CMqP9wgEFu_h-174" style="edgeStyle=orthogonalEdgeStyle;rounded=0;orthogonalLoop=1;jettySize=auto;html=1;entryX=1;entryY=0.5;entryDx=0;entryDy=0;fontFamily=Comic Sans MS;fontStyle=1;strokeWidth=2;fontSize=8;align=left;" parent="1" source="9v2BSST4CMqP9wgEFu_h-170" target="9v2BSST4CMqP9wgEFu_h-168" edge="1">
          <mxGeometry relative="1" as="geometry">
            <Array as="points">
              <mxPoint x="40710" y="7540" />
              <mxPoint x="40710" y="7520" />
            </Array>
          </mxGeometry>
        </mxCell>
        <mxCell id="9v2BSST4CMqP9wgEFu_h-170" value=".so" style="rounded=0;whiteSpace=wrap;html=1;fontFamily=Comic Sans MS;fontStyle=1;strokeWidth=2;fontSize=8;align=left;" parent="1" vertex="1">
          <mxGeometry x="40760" y="7520" width="120" height="40" as="geometry" />
        </mxCell>
        <mxCell id="9v2BSST4CMqP9wgEFu_h-175" style="edgeStyle=orthogonalEdgeStyle;rounded=0;orthogonalLoop=1;jettySize=auto;html=1;entryX=1;entryY=0.75;entryDx=0;entryDy=0;fontFamily=Comic Sans MS;fontStyle=1;strokeWidth=2;fontSize=8;align=left;" parent="1" source="9v2BSST4CMqP9wgEFu_h-171" target="9v2BSST4CMqP9wgEFu_h-168" edge="1">
          <mxGeometry relative="1" as="geometry" />
        </mxCell>
        <mxCell id="9v2BSST4CMqP9wgEFu_h-171" value=".so" style="rounded=0;whiteSpace=wrap;html=1;fontFamily=Comic Sans MS;fontStyle=1;strokeWidth=2;fontSize=8;align=left;" parent="1" vertex="1">
          <mxGeometry x="40760" y="7560" width="120" height="40" as="geometry" />
        </mxCell>
        <mxCell id="9v2BSST4CMqP9wgEFu_h-178" value="可以理解为&lt;br style=&quot;font-size: 8px;&quot;&gt;每个库中所&lt;br style=&quot;font-size: 8px;&quot;&gt;在的地址填&lt;br style=&quot;font-size: 8px;&quot;&gt;进表中，就&lt;br style=&quot;font-size: 8px;&quot;&gt;是动态链接" style="text;html=1;align=left;verticalAlign=middle;resizable=0;points=[];autosize=1;strokeColor=none;fillColor=none;horizontal=1;spacing=0;fontFamily=Comic Sans MS;fontStyle=1;strokeWidth=2;fontSize=8;" parent="1" vertex="1">
          <mxGeometry x="40671" y="7421" width="60" height="60" as="geometry" />
        </mxCell>
        <mxCell id="fr6yA16B5dzLfAjWjT_z-160" value="" style="whiteSpace=wrap;html=1;strokeWidth=2;fontFamily=Comic Sans MS;fontSize=8;fillColor=none;fontStyle=1;align=left;" parent="1" vertex="1">
          <mxGeometry x="41320" y="6240" width="100" height="160" as="geometry" />
        </mxCell>
        <mxCell id="fr6yA16B5dzLfAjWjT_z-164" value="&lt;font face=&quot;Comic Sans MS&quot; style=&quot;font-size: 8px;&quot;&gt;&lt;b style=&quot;font-size: 8px;&quot;&gt;&lt;br style=&quot;font-size: 8px;&quot;&gt;&lt;/b&gt;&lt;/font&gt;" style="edgeStyle=orthogonalEdgeStyle;rounded=0;orthogonalLoop=1;jettySize=auto;html=1;entryX=0.5;entryY=0;entryDx=0;entryDy=0;exitX=0;exitY=0.25;exitDx=0;exitDy=0;align=left;strokeWidth=2;fontSize=8;" parent="1" source="fr6yA16B5dzLfAjWjT_z-161" target="fr6yA16B5dzLfAjWjT_z-162" edge="1">
          <mxGeometry x="0.3939" y="-30" relative="1" as="geometry">
            <mxPoint as="offset" />
          </mxGeometry>
        </mxCell>
        <mxCell id="fr6yA16B5dzLfAjWjT_z-175" value="（1）加载到 CPU" style="edgeLabel;html=1;align=left;verticalAlign=middle;resizable=0;points=[];fontFamily=Comic Sans MS;fontStyle=1;fontSize=8;" parent="fr6yA16B5dzLfAjWjT_z-164" vertex="1" connectable="0">
          <mxGeometry x="-0.6159" y="-1" relative="1" as="geometry">
            <mxPoint x="-38" y="-14" as="offset" />
          </mxGeometry>
        </mxCell>
        <mxCell id="fr6yA16B5dzLfAjWjT_z-172" style="edgeStyle=orthogonalEdgeStyle;rounded=0;orthogonalLoop=1;jettySize=auto;html=1;exitX=0;exitY=0.75;exitDx=0;exitDy=0;entryX=0.5;entryY=1;entryDx=0;entryDy=0;strokeWidth=2;fontSize=8;align=left;" parent="1" source="fr6yA16B5dzLfAjWjT_z-161" target="fr6yA16B5dzLfAjWjT_z-162" edge="1">
          <mxGeometry relative="1" as="geometry" />
        </mxCell>
        <mxCell id="fr6yA16B5dzLfAjWjT_z-176" value="（4）加载到 CPU" style="edgeLabel;html=1;align=left;verticalAlign=middle;resizable=0;points=[];fontFamily=Comic Sans MS;fontStyle=1;fontSize=8;" parent="fr6yA16B5dzLfAjWjT_z-172" vertex="1" connectable="0">
          <mxGeometry x="-0.5509" relative="1" as="geometry">
            <mxPoint x="-30" y="20" as="offset" />
          </mxGeometry>
        </mxCell>
        <mxCell id="fr6yA16B5dzLfAjWjT_z-161" value="&lt;div style=&quot;font-size: 8px;&quot;&gt;临界资源：&lt;/div&gt;&lt;div style=&quot;font-size: 8px;&quot;&gt;int variate;&lt;/div&gt;&lt;div style=&quot;font-size: 8px;&quot;&gt;设一开始值为 0，经执行流 B 变为 1&lt;/div&gt;" style="whiteSpace=wrap;html=1;strokeWidth=2;fontFamily=Comic Sans MS;fontSize=8;fillColor=none;fontStyle=1;align=left;" parent="1" vertex="1">
          <mxGeometry x="41320" y="6280" width="100" height="55" as="geometry" />
        </mxCell>
        <mxCell id="fr6yA16B5dzLfAjWjT_z-162" value="CPU" style="whiteSpace=wrap;html=1;strokeWidth=2;fontFamily=Comic Sans MS;fontSize=8;fillColor=none;fontStyle=1;align=center;" parent="1" vertex="1">
          <mxGeometry x="41130" y="6285" width="60" height="60" as="geometry" />
        </mxCell>
        <mxCell id="fr6yA16B5dzLfAjWjT_z-163" value="内存" style="text;html=1;align=center;verticalAlign=middle;resizable=0;points=[];autosize=1;strokeColor=none;fillColor=none;fontSize=8;fontFamily=Comic Sans MS;fontStyle=1" parent="1" vertex="1">
          <mxGeometry x="41345" y="6220" width="40" height="20" as="geometry" />
        </mxCell>
        <mxCell id="fr6yA16B5dzLfAjWjT_z-165" value="&lt;font face=&quot;Comic Sans MS&quot; style=&quot;font-size: 8px;&quot;&gt;&lt;font style=&quot;font-size: 8px;&quot;&gt;（2）执行流 A &lt;br style=&quot;font-size: 8px;&quot;&gt;执行 ++ 操作，内含指令：&lt;br style=&quot;font-size: 8px;&quot;&gt;汇编指令1&lt;br style=&quot;font-size: 8px;&quot;&gt;汇编指令2&lt;br style=&quot;font-size: 8px;&quot;&gt;&lt;/font&gt;&lt;span style=&quot;font-size: 8px;&quot;&gt;汇编指令3...&lt;/span&gt;&lt;/font&gt;" style="text;html=1;align=left;verticalAlign=middle;resizable=0;points=[];autosize=1;strokeColor=none;fillColor=none;fontStyle=1;fontSize=8;" parent="1" vertex="1">
          <mxGeometry x="41190" y="6190" width="120" height="60" as="geometry" />
        </mxCell>
        <mxCell id="fr6yA16B5dzLfAjWjT_z-171" value="&lt;b style=&quot;font-size: 8px;&quot;&gt;&lt;font face=&quot;Comic Sans MS&quot; style=&quot;font-size: 8px;&quot;&gt;（3）但是只执行 ++ 操作的&lt;br style=&quot;font-size: 8px;&quot;&gt;前两条汇编指令，&lt;br style=&quot;font-size: 8px;&quot;&gt;此时&amp;nbsp;variate 还是 0，&lt;br style=&quot;font-size: 8px;&quot;&gt;执行流 A 只能保存好上下文数据，&lt;br style=&quot;font-size: 8px;&quot;&gt;被 CPU 写回内存中，等待下次加载&lt;br style=&quot;font-size: 8px;&quot;&gt;&lt;/font&gt;&lt;/b&gt;" style="text;html=1;align=left;verticalAlign=middle;resizable=0;points=[];autosize=1;strokeColor=none;fillColor=none;fontSize=8;" parent="1" vertex="1">
          <mxGeometry x="41010" y="6210" width="150" height="60" as="geometry" />
        </mxCell>
        <mxCell id="fr6yA16B5dzLfAjWjT_z-173" value="&lt;font face=&quot;Comic Sans MS&quot; style=&quot;font-size: 8px;&quot;&gt;&lt;font style=&quot;font-size: 8px;&quot;&gt;（5）执行流 B&lt;br style=&quot;font-size: 8px;&quot;&gt;也执行 ++ 操作，内含指令：&lt;br style=&quot;font-size: 8px;&quot;&gt;汇编指令1&lt;br style=&quot;font-size: 8px;&quot;&gt;汇编指令2&lt;br style=&quot;font-size: 8px;&quot;&gt;&lt;/font&gt;&lt;span style=&quot;font-size: 8px;&quot;&gt;汇编指令3...&lt;/span&gt;&lt;/font&gt;" style="text;html=1;align=left;verticalAlign=middle;resizable=0;points=[];autosize=1;strokeColor=none;fillColor=none;fontStyle=1;fontSize=8;" parent="1" vertex="1">
          <mxGeometry x="41190" y="6380" width="130" height="60" as="geometry" />
        </mxCell>
        <mxCell id="fr6yA16B5dzLfAjWjT_z-174" value="&lt;b style=&quot;font-size: 8px;&quot;&gt;&lt;font face=&quot;Comic Sans MS&quot; style=&quot;font-size: 8px;&quot;&gt;（6）执行了 ++ 操作的&lt;br style=&quot;font-size: 8px;&quot;&gt;全部汇编指令，&lt;br style=&quot;font-size: 8px;&quot;&gt;此时&amp;nbsp;variate 变为 1，将结果写回内存&lt;br&gt;&lt;/font&gt;&lt;/b&gt;&lt;b&gt;&lt;font face=&quot;Comic Sans MS&quot;&gt;执行流 B 同样保存好上下文数据，&lt;br&gt;被 CPU 写回内存中，等待下次加载&lt;/font&gt;&lt;/b&gt;&lt;b style=&quot;font-size: 8px;&quot;&gt;&lt;font face=&quot;Comic Sans MS&quot; style=&quot;font-size: 8px;&quot;&gt;&lt;br&gt;&lt;/font&gt;&lt;/b&gt;" style="text;html=1;align=left;verticalAlign=middle;resizable=0;points=[];autosize=1;strokeColor=none;fillColor=none;fontSize=8;" parent="1" vertex="1">
          <mxGeometry x="41040" y="6370" width="160" height="60" as="geometry" />
        </mxCell>
        <mxCell id="fr6yA16B5dzLfAjWjT_z-177" value="" style="whiteSpace=wrap;html=1;strokeWidth=2;fontFamily=Comic Sans MS;fontSize=8;fillColor=none;fontStyle=1;align=left;" parent="1" vertex="1">
          <mxGeometry x="41320" y="6520" width="110" height="160" as="geometry" />
        </mxCell>
        <mxCell id="fr6yA16B5dzLfAjWjT_z-178" value="&lt;font face=&quot;Comic Sans MS&quot; style=&quot;font-size: 8px;&quot;&gt;&lt;b style=&quot;font-size: 8px;&quot;&gt;&lt;br style=&quot;font-size: 8px;&quot;&gt;&lt;/b&gt;&lt;/font&gt;" style="edgeStyle=orthogonalEdgeStyle;rounded=0;orthogonalLoop=1;jettySize=auto;html=1;entryX=0.5;entryY=0;entryDx=0;entryDy=0;exitX=0;exitY=0.25;exitDx=0;exitDy=0;align=left;strokeWidth=2;fontSize=8;" parent="1" source="fr6yA16B5dzLfAjWjT_z-182" target="fr6yA16B5dzLfAjWjT_z-183" edge="1">
          <mxGeometry x="0.3939" y="-30" relative="1" as="geometry">
            <mxPoint as="offset" />
          </mxGeometry>
        </mxCell>
        <mxCell id="fr6yA16B5dzLfAjWjT_z-180" style="edgeStyle=orthogonalEdgeStyle;rounded=0;orthogonalLoop=1;jettySize=auto;html=1;exitX=0;exitY=0.75;exitDx=0;exitDy=0;entryX=0.5;entryY=1;entryDx=0;entryDy=0;strokeWidth=2;fontSize=8;align=left;" parent="1" source="fr6yA16B5dzLfAjWjT_z-182" target="fr6yA16B5dzLfAjWjT_z-183" edge="1">
          <mxGeometry relative="1" as="geometry" />
        </mxCell>
        <mxCell id="fr6yA16B5dzLfAjWjT_z-181" value="（1）由于某些时序原因，&lt;br&gt;先把执行流 B 加载到 CPU 了，&lt;br&gt;&lt;font style=&quot;background-color: rgb(27, 29, 30);&quot; face=&quot;Comic Sans MS&quot;&gt;把上下文数据加载进 CPU 中，&lt;br&gt;该上下文中数据包含&amp;nbsp;&lt;/font&gt;&lt;b style=&quot;font-family: Helvetica; background-color: rgb(27, 29, 30);&quot;&gt;&lt;font face=&quot;Comic Sans MS&quot;&gt;variate，&lt;br&gt;此时的值（为 1）&lt;/font&gt;&lt;/b&gt;" style="edgeLabel;html=1;align=left;verticalAlign=middle;resizable=0;points=[];fontFamily=Comic Sans MS;fontStyle=1;fontSize=8;" parent="fr6yA16B5dzLfAjWjT_z-180" vertex="1" connectable="0">
          <mxGeometry x="-0.5509" relative="1" as="geometry">
            <mxPoint x="-70" y="45" as="offset" />
          </mxGeometry>
        </mxCell>
        <mxCell id="fr6yA16B5dzLfAjWjT_z-189" value="（4）执行流 A 加载进 CPU，&lt;br&gt;&lt;font style=&quot;background-color: rgb(27, 29, 30);&quot; face=&quot;Comic Sans MS&quot;&gt;把上下文数据也加载进 CPU 中，&lt;br&gt;该上下文中数据包含&amp;nbsp;&lt;/font&gt;&lt;b style=&quot;font-family: Helvetica; background-color: rgb(27, 29, 30);&quot;&gt;&lt;font face=&quot;Comic Sans MS&quot;&gt;variate，&lt;br&gt;此时的值（为 0）&lt;/font&gt;&lt;/b&gt;" style="edgeLabel;html=1;align=left;verticalAlign=middle;resizable=0;points=[];fontFamily=Comic Sans MS;fontStyle=1;fontSize=8;" parent="fr6yA16B5dzLfAjWjT_z-180" vertex="1" connectable="0">
          <mxGeometry x="-0.5509" relative="1" as="geometry">
            <mxPoint x="-80" y="-65" as="offset" />
          </mxGeometry>
        </mxCell>
        <mxCell id="fr6yA16B5dzLfAjWjT_z-182" value="&lt;div style=&quot;font-size: 8px;&quot;&gt;临界资源：&lt;/div&gt;&lt;div style=&quot;font-size: 8px;&quot;&gt;int variate;&lt;/div&gt;&lt;div style=&quot;font-size: 8px;&quot;&gt;经过执行流 B，值变 2，&lt;/div&gt;&lt;div style=&quot;font-size: 8px;&quot;&gt;但是又被执行流 A 的结果覆盖，变回了1&lt;/div&gt;" style="whiteSpace=wrap;html=1;strokeWidth=2;fontFamily=Comic Sans MS;fontSize=8;fillColor=none;fontStyle=1;align=left;" parent="1" vertex="1">
          <mxGeometry x="41320" y="6560" width="110" height="55" as="geometry" />
        </mxCell>
        <mxCell id="fr6yA16B5dzLfAjWjT_z-183" value="CPU" style="whiteSpace=wrap;html=1;strokeWidth=2;fontFamily=Comic Sans MS;fontSize=8;fillColor=none;fontStyle=1;align=center;" parent="1" vertex="1">
          <mxGeometry x="41130" y="6565" width="60" height="60" as="geometry" />
        </mxCell>
        <mxCell id="fr6yA16B5dzLfAjWjT_z-184" value="内存" style="text;html=1;align=center;verticalAlign=middle;resizable=0;points=[];autosize=1;strokeColor=none;fillColor=none;fontSize=8;fontFamily=Comic Sans MS;fontStyle=1" parent="1" vertex="1">
          <mxGeometry x="41345" y="6495" width="40" height="20" as="geometry" />
        </mxCell>
        <mxCell id="fr6yA16B5dzLfAjWjT_z-187" value="&lt;font face=&quot;Comic Sans MS&quot; style=&quot;font-size: 8px;&quot;&gt;&lt;font style=&quot;font-size: 8px;&quot;&gt;（2）执行流 B&lt;/font&gt;&lt;/font&gt;&lt;font face=&quot;Comic Sans MS&quot; style=&quot;font-size: 8px;&quot;&gt;&lt;font style=&quot;font-size: 8px;&quot;&gt;&lt;br&gt;然后执行 ++ 操作，内含指令：&lt;br style=&quot;font-size: 8px;&quot;&gt;汇编指令1&lt;br style=&quot;font-size: 8px;&quot;&gt;汇编指令2&lt;br style=&quot;font-size: 8px;&quot;&gt;&lt;/font&gt;&lt;span style=&quot;font-size: 8px;&quot;&gt;汇编指令3...&lt;/span&gt;&lt;/font&gt;" style="text;html=1;align=left;verticalAlign=middle;resizable=0;points=[];autosize=1;strokeColor=none;fillColor=none;fontStyle=1;fontSize=8;" parent="1" vertex="1">
          <mxGeometry x="41110" y="6665" width="140" height="60" as="geometry" />
        </mxCell>
        <mxCell id="fr6yA16B5dzLfAjWjT_z-188" value="&lt;b style=&quot;font-size: 8px;&quot;&gt;&lt;font face=&quot;Comic Sans MS&quot; style=&quot;font-size: 8px;&quot;&gt;（3）执行了 ++ 操作的&lt;br style=&quot;font-size: 8px;&quot;&gt;全部汇编指令，&lt;br style=&quot;font-size: 8px;&quot;&gt;此时&amp;nbsp;variate 变为 2，将结果写回内存&lt;br&gt;再次写回执行流 B 的上下文数据中&lt;br&gt;&lt;/font&gt;&lt;/b&gt;" style="text;html=1;align=left;verticalAlign=middle;resizable=0;points=[];autosize=1;strokeColor=none;fillColor=none;fontSize=8;" parent="1" vertex="1">
          <mxGeometry x="40990" y="6610" width="160" height="50" as="geometry" />
        </mxCell>
        <mxCell id="fr6yA16B5dzLfAjWjT_z-190" value="&lt;font face=&quot;Comic Sans MS&quot; style=&quot;font-size: 8px;&quot;&gt;&lt;font style=&quot;font-size: 8px;&quot;&gt;（5）执行流 A&lt;br style=&quot;font-size: 8px;&quot;&gt;执行 ++ 操作，内含指令：&lt;br style=&quot;font-size: 8px;&quot;&gt;汇编指令1&lt;br style=&quot;font-size: 8px;&quot;&gt;汇编指令2&lt;br style=&quot;font-size: 8px;&quot;&gt;&lt;/font&gt;&lt;span style=&quot;font-size: 8px;&quot;&gt;汇编指令3...&lt;/span&gt;&lt;/font&gt;" style="text;html=1;align=left;verticalAlign=middle;resizable=0;points=[];autosize=1;strokeColor=none;fillColor=none;fontStyle=1;fontSize=8;" parent="1" vertex="1">
          <mxGeometry x="41120" y="6475" width="120" height="60" as="geometry" />
        </mxCell>
        <mxCell id="fr6yA16B5dzLfAjWjT_z-191" value="&lt;b style=&quot;font-size: 8px;&quot;&gt;&lt;font face=&quot;Comic Sans MS&quot; style=&quot;font-size: 8px;&quot;&gt;（6）终于执行了 ++ 全部汇编指令，&lt;br style=&quot;font-size: 8px;&quot;&gt;此时&amp;nbsp;variate 变为 1，将结果写回内存&lt;br&gt;再次写回执行流 A 的上下文数据中&lt;br&gt;&lt;/font&gt;&lt;/b&gt;" style="text;html=1;align=left;verticalAlign=middle;resizable=0;points=[];autosize=1;strokeColor=none;fillColor=none;fontSize=8;" parent="1" vertex="1">
          <mxGeometry x="40980" y="6535" width="160" height="40" as="geometry" />
        </mxCell>
        <mxCell id="cx6c4Gd0IiIKo2_7uAVE-160" value="&lt;font style=&quot;font-size: 15px;&quot;&gt;cat test.txt | wc -m&lt;/font&gt;" style="whiteSpace=wrap;html=1;strokeWidth=2;fontFamily=Comic Sans MS;fontSize=8;fillColor=none;fontStyle=1;align=center;" parent="1" vertex="1">
          <mxGeometry x="41640" y="6750" width="270" height="25" as="geometry" />
        </mxCell>
        <mxCell id="cx6c4Gd0IiIKo2_7uAVE-166" style="edgeStyle=orthogonalEdgeStyle;rounded=0;orthogonalLoop=1;jettySize=auto;html=1;exitX=0.5;exitY=1;exitDx=0;exitDy=0;exitPerimeter=0;entryX=0;entryY=0.5;entryDx=0;entryDy=0;fontSize=8;fontStyle=1;strokeWidth=2;" parent="1" source="cx6c4Gd0IiIKo2_7uAVE-161" target="cx6c4Gd0IiIKo2_7uAVE-164" edge="1">
          <mxGeometry relative="1" as="geometry">
            <Array as="points">
              <mxPoint x="41800" y="6876.5" />
              <mxPoint x="41800" y="6815.5" />
            </Array>
          </mxGeometry>
        </mxCell>
        <mxCell id="cx6c4Gd0IiIKo2_7uAVE-161" value="" style="shape=cylinder3;whiteSpace=wrap;html=1;boundedLbl=1;backgroundOutline=1;size=6.76771240234666;rotation=-90;strokeWidth=2;fontSize=8;fontStyle=1" parent="1" vertex="1">
          <mxGeometry x="41740" y="6847.5" width="20" height="57.5" as="geometry" />
        </mxCell>
        <mxCell id="cx6c4Gd0IiIKo2_7uAVE-162" style="edgeStyle=orthogonalEdgeStyle;rounded=0;orthogonalLoop=1;jettySize=auto;html=1;exitX=1;exitY=0.5;exitDx=0;exitDy=0;entryX=0.5;entryY=0;entryDx=0;entryDy=0;entryPerimeter=0;fontSize=8;fontStyle=1;strokeWidth=2;" parent="1" source="cx6c4Gd0IiIKo2_7uAVE-163" target="cx6c4Gd0IiIKo2_7uAVE-161" edge="1">
          <mxGeometry relative="1" as="geometry">
            <Array as="points">
              <mxPoint x="41780" y="6815.5" />
              <mxPoint x="41780" y="6842.5" />
              <mxPoint x="41700" y="6842.5" />
              <mxPoint x="41700" y="6876.5" />
            </Array>
          </mxGeometry>
        </mxCell>
        <mxCell id="cx6c4Gd0IiIKo2_7uAVE-163" value="cat test.txt&lt;br style=&quot;font-size: 8px;&quot;&gt;（输出文件内容到标准输出）" style="whiteSpace=wrap;html=1;strokeWidth=2;fontFamily=Comic Sans MS;fontSize=8;fillColor=none;fontStyle=1;align=center;" parent="1" vertex="1">
          <mxGeometry x="41650" y="6802.5" width="110" height="25" as="geometry" />
        </mxCell>
        <mxCell id="cx6c4Gd0IiIKo2_7uAVE-164" value="wc -m&lt;br style=&quot;font-size: 8px;&quot;&gt;（统计字符个数）" style="whiteSpace=wrap;html=1;strokeWidth=2;fontFamily=Comic Sans MS;fontSize=8;fillColor=none;fontStyle=1;align=center;" parent="1" vertex="1">
          <mxGeometry x="41830" y="6802.5" width="70" height="25" as="geometry" />
        </mxCell>
        <mxCell id="cx6c4Gd0IiIKo2_7uAVE-168" value="" style="whiteSpace=wrap;html=1;strokeWidth=2;fontFamily=Comic Sans MS;fontSize=8;fillColor=none;fontStyle=1;align=center;" parent="1" vertex="1">
          <mxGeometry x="41640" y="6788.5" width="270" height="110" as="geometry" />
        </mxCell>
        <mxCell id="Up7-WhiIbLMcY2oKeZ_G-160" value="父进程&lt;br&gt;（写端进程）" style="rounded=1;whiteSpace=wrap;html=1;strokeWidth=2;fontFamily=Comic Sans MS;fontStyle=1;fillColor=#a20025;fontColor=#ffffff;strokeColor=#6F0000;" parent="1" vertex="1">
          <mxGeometry x="41270" y="7211" width="80" height="80" as="geometry" />
        </mxCell>
        <mxCell id="Up7-WhiIbLMcY2oKeZ_G-161" value="子进程A&lt;br&gt;（读端进程）" style="rounded=1;whiteSpace=wrap;html=1;strokeWidth=2;fontFamily=Comic Sans MS;fontStyle=1;fillColor=#60a917;fontColor=#ffffff;strokeColor=#2D7600;" parent="1" vertex="1">
          <mxGeometry x="41530" y="7181" width="80" height="40" as="geometry" />
        </mxCell>
        <mxCell id="Up7-WhiIbLMcY2oKeZ_G-162" value="子进程C&lt;br&gt;（读端进程）" style="rounded=1;whiteSpace=wrap;html=1;strokeWidth=2;fontFamily=Comic Sans MS;fontStyle=1;fillColor=#e3c800;fontColor=#000000;strokeColor=#B09500;" parent="1" vertex="1">
          <mxGeometry x="41530" y="7280" width="80" height="40" as="geometry" />
        </mxCell>
        <mxCell id="Up7-WhiIbLMcY2oKeZ_G-166" style="edgeStyle=orthogonalEdgeStyle;rounded=0;orthogonalLoop=1;jettySize=auto;html=1;exitX=1;exitY=0.5;exitDx=0;exitDy=0;entryX=0.5;entryY=0;entryDx=0;entryDy=0;entryPerimeter=0;strokeWidth=2;fontFamily=Comic Sans MS;fontStyle=1;fillColor=#a20025;strokeColor=#6F0000;" parent="1" source="Up7-WhiIbLMcY2oKeZ_G-160" target="Up7-WhiIbLMcY2oKeZ_G-163" edge="1">
          <mxGeometry relative="1" as="geometry" />
        </mxCell>
        <mxCell id="Up7-WhiIbLMcY2oKeZ_G-167" style="edgeStyle=orthogonalEdgeStyle;rounded=0;orthogonalLoop=1;jettySize=auto;html=1;exitX=0;exitY=0.5;exitDx=0;exitDy=0;strokeWidth=2;fontFamily=Comic Sans MS;fontStyle=1;fillColor=#60a917;strokeColor=#2D7600;entryX=0.5;entryY=1;entryDx=0;entryDy=0;entryPerimeter=0;" parent="1" source="Up7-WhiIbLMcY2oKeZ_G-161" target="Up7-WhiIbLMcY2oKeZ_G-163" edge="1">
          <mxGeometry relative="1" as="geometry">
            <mxPoint x="41520" y="7215" as="targetPoint" />
            <Array as="points">
              <mxPoint x="41520" y="7201" />
              <mxPoint x="41520" y="7201" />
            </Array>
          </mxGeometry>
        </mxCell>
        <mxCell id="Up7-WhiIbLMcY2oKeZ_G-168" style="edgeStyle=orthogonalEdgeStyle;rounded=0;orthogonalLoop=1;jettySize=auto;html=1;exitX=0;exitY=0.5;exitDx=0;exitDy=0;strokeWidth=2;fontFamily=Comic Sans MS;fontStyle=1;fillColor=#e3c800;strokeColor=#B09500;entryX=0.5;entryY=1;entryDx=0;entryDy=0;entryPerimeter=0;" parent="1" source="Up7-WhiIbLMcY2oKeZ_G-162" target="3Jkj5hIZHOZpRPRybCDb-166" edge="1">
          <mxGeometry relative="1" as="geometry">
            <mxPoint x="41440" y="7345" as="targetPoint" />
            <Array as="points">
              <mxPoint x="41530" y="7301" />
              <mxPoint x="41530" y="7301" />
            </Array>
          </mxGeometry>
        </mxCell>
        <mxCell id="Up7-WhiIbLMcY2oKeZ_G-169" value="子进程B&lt;br&gt;（读端进程）" style="rounded=1;whiteSpace=wrap;html=1;strokeWidth=2;fontFamily=Comic Sans MS;fontStyle=1;fillColor=#6a00ff;fontColor=#ffffff;strokeColor=#3700CC;" parent="1" vertex="1">
          <mxGeometry x="41530" y="7230" width="80" height="40" as="geometry" />
        </mxCell>
        <mxCell id="Up7-WhiIbLMcY2oKeZ_G-170" style="edgeStyle=orthogonalEdgeStyle;rounded=0;orthogonalLoop=1;jettySize=auto;html=1;exitX=0;exitY=0.5;exitDx=0;exitDy=0;fillColor=#6a00ff;strokeColor=#3700CC;strokeWidth=2;entryX=0.5;entryY=1;entryDx=0;entryDy=0;entryPerimeter=0;" parent="1" source="Up7-WhiIbLMcY2oKeZ_G-169" target="3Jkj5hIZHOZpRPRybCDb-162" edge="1">
          <mxGeometry relative="1" as="geometry">
            <mxPoint x="41500" y="7225" as="targetPoint" />
            <Array as="points">
              <mxPoint x="41530" y="7251" />
            </Array>
          </mxGeometry>
        </mxCell>
        <mxCell id="Up7-WhiIbLMcY2oKeZ_G-163" value="" style="shape=cylinder3;whiteSpace=wrap;html=1;boundedLbl=1;backgroundOutline=1;size=7.777791341145814;rotation=-90;strokeWidth=2;fontFamily=Comic Sans MS;fontStyle=1" parent="1" vertex="1">
          <mxGeometry x="41435" y="7161" width="20" height="80" as="geometry" />
        </mxCell>
        <mxCell id="Up7-WhiIbLMcY2oKeZ_G-164" value="读端" style="text;html=1;align=center;verticalAlign=middle;resizable=0;points=[];autosize=1;strokeColor=none;fillColor=none;strokeWidth=2;fontFamily=Comic Sans MS;fontStyle=1" parent="1" vertex="1">
          <mxGeometry x="41440" y="7185" width="50" height="30" as="geometry" />
        </mxCell>
        <mxCell id="Up7-WhiIbLMcY2oKeZ_G-165" value="写端" style="text;html=1;align=center;verticalAlign=middle;resizable=0;points=[];autosize=1;strokeColor=none;fillColor=none;strokeWidth=2;fontFamily=Comic Sans MS;fontStyle=1" parent="1" vertex="1">
          <mxGeometry x="41399" y="7185" width="50" height="30" as="geometry" />
        </mxCell>
        <mxCell id="3Jkj5hIZHOZpRPRybCDb-162" value="" style="shape=cylinder3;whiteSpace=wrap;html=1;boundedLbl=1;backgroundOutline=1;size=7.777791341145814;rotation=-90;strokeWidth=2;fontFamily=Comic Sans MS;fontStyle=1" parent="1" vertex="1">
          <mxGeometry x="41435" y="7211" width="20" height="80" as="geometry" />
        </mxCell>
        <mxCell id="3Jkj5hIZHOZpRPRybCDb-163" value="读端" style="text;html=1;align=center;verticalAlign=middle;resizable=0;points=[];autosize=1;strokeColor=none;fillColor=none;strokeWidth=2;fontFamily=Comic Sans MS;fontStyle=1" parent="1" vertex="1">
          <mxGeometry x="41440" y="7235" width="50" height="30" as="geometry" />
        </mxCell>
        <mxCell id="3Jkj5hIZHOZpRPRybCDb-164" value="写端" style="text;html=1;align=center;verticalAlign=middle;resizable=0;points=[];autosize=1;strokeColor=none;fillColor=none;strokeWidth=2;fontFamily=Comic Sans MS;fontStyle=1" parent="1" vertex="1">
          <mxGeometry x="41399" y="7235" width="50" height="30" as="geometry" />
        </mxCell>
        <mxCell id="3Jkj5hIZHOZpRPRybCDb-166" value="" style="shape=cylinder3;whiteSpace=wrap;html=1;boundedLbl=1;backgroundOutline=1;size=7.777791341145814;rotation=-90;strokeWidth=2;fontFamily=Comic Sans MS;fontStyle=1" parent="1" vertex="1">
          <mxGeometry x="41435" y="7261" width="20" height="80" as="geometry" />
        </mxCell>
        <mxCell id="3Jkj5hIZHOZpRPRybCDb-167" value="读端" style="text;html=1;align=center;verticalAlign=middle;resizable=0;points=[];autosize=1;strokeColor=none;fillColor=none;strokeWidth=2;fontFamily=Comic Sans MS;fontStyle=1" parent="1" vertex="1">
          <mxGeometry x="41440" y="7285" width="50" height="30" as="geometry" />
        </mxCell>
        <mxCell id="3Jkj5hIZHOZpRPRybCDb-168" value="写端" style="text;html=1;align=center;verticalAlign=middle;resizable=0;points=[];autosize=1;strokeColor=none;fillColor=none;strokeWidth=2;fontFamily=Comic Sans MS;fontStyle=1" parent="1" vertex="1">
          <mxGeometry x="41399" y="7285" width="50" height="30" as="geometry" />
        </mxCell>
        <mxCell id="3Jkj5hIZHOZpRPRybCDb-172" style="edgeStyle=orthogonalEdgeStyle;rounded=0;orthogonalLoop=1;jettySize=auto;html=1;strokeWidth=2;fontFamily=Comic Sans MS;fontStyle=1;fillColor=#a20025;strokeColor=#6F0000;entryX=0.5;entryY=0;entryDx=0;entryDy=0;entryPerimeter=0;exitX=1;exitY=0.5;exitDx=0;exitDy=0;" parent="1" source="Up7-WhiIbLMcY2oKeZ_G-160" target="3Jkj5hIZHOZpRPRybCDb-162" edge="1">
          <mxGeometry relative="1" as="geometry">
            <mxPoint x="41360" y="7245" as="sourcePoint" />
            <mxPoint x="41400" y="7255" as="targetPoint" />
          </mxGeometry>
        </mxCell>
        <mxCell id="3Jkj5hIZHOZpRPRybCDb-174" style="edgeStyle=orthogonalEdgeStyle;rounded=0;orthogonalLoop=1;jettySize=auto;html=1;strokeWidth=2;fontFamily=Comic Sans MS;fontStyle=1;fillColor=#a20025;strokeColor=#6F0000;entryX=0.5;entryY=0;entryDx=0;entryDy=0;entryPerimeter=0;exitX=1;exitY=0.5;exitDx=0;exitDy=0;" parent="1" source="Up7-WhiIbLMcY2oKeZ_G-160" target="3Jkj5hIZHOZpRPRybCDb-166" edge="1">
          <mxGeometry relative="1" as="geometry">
            <mxPoint x="41340" y="7255" as="sourcePoint" />
            <mxPoint x="41415" y="7261" as="targetPoint" />
          </mxGeometry>
        </mxCell>
        <mxCell id="3Jkj5hIZHOZpRPRybCDb-177" value="子进程A&lt;br&gt;（读端进程）" style="rounded=1;whiteSpace=wrap;html=1;strokeWidth=2;fontFamily=Comic Sans MS;fontStyle=1;fillColor=#60a917;fontColor=#ffffff;strokeColor=#2D7600;" parent="1" vertex="1">
          <mxGeometry x="41230" y="7361" width="80" height="40" as="geometry" />
        </mxCell>
        <mxCell id="3Jkj5hIZHOZpRPRybCDb-178" value="子进程C&lt;br&gt;（读端进程）" style="rounded=1;whiteSpace=wrap;html=1;strokeWidth=2;fontFamily=Comic Sans MS;fontStyle=1;fillColor=#e3c800;fontColor=#000000;strokeColor=#B09500;" parent="1" vertex="1">
          <mxGeometry x="41610" y="7359" width="80" height="40" as="geometry" />
        </mxCell>
        <mxCell id="3Jkj5hIZHOZpRPRybCDb-182" value="子进程B&lt;br&gt;（读端进程）" style="rounded=1;whiteSpace=wrap;html=1;strokeWidth=2;fontFamily=Comic Sans MS;fontStyle=1;fillColor=#6a00ff;fontColor=#ffffff;strokeColor=#3700CC;" parent="1" vertex="1">
          <mxGeometry x="41420" y="7360" width="80" height="40" as="geometry" />
        </mxCell>
        <mxCell id="3Jkj5hIZHOZpRPRybCDb-184" value="" style="shape=cylinder3;whiteSpace=wrap;html=1;boundedLbl=1;backgroundOutline=1;size=7.777791341145814;rotation=-90;strokeWidth=2;fontFamily=Comic Sans MS;fontStyle=1" parent="1" vertex="1">
          <mxGeometry x="41355" y="7341" width="20" height="80" as="geometry" />
        </mxCell>
        <mxCell id="3Jkj5hIZHOZpRPRybCDb-185" value="读端" style="text;html=1;align=center;verticalAlign=middle;resizable=0;points=[];autosize=1;strokeColor=none;fillColor=none;strokeWidth=2;fontFamily=Comic Sans MS;fontStyle=1" parent="1" vertex="1">
          <mxGeometry x="41360" y="7365" width="50" height="30" as="geometry" />
        </mxCell>
        <mxCell id="3Jkj5hIZHOZpRPRybCDb-186" value="写端" style="text;html=1;align=center;verticalAlign=middle;resizable=0;points=[];autosize=1;strokeColor=none;fillColor=none;strokeWidth=2;fontFamily=Comic Sans MS;fontStyle=1" parent="1" vertex="1">
          <mxGeometry x="41319" y="7365" width="50" height="30" as="geometry" />
        </mxCell>
        <mxCell id="3Jkj5hIZHOZpRPRybCDb-187" value="" style="shape=cylinder3;whiteSpace=wrap;html=1;boundedLbl=1;backgroundOutline=1;size=7.777791341145814;rotation=-90;strokeWidth=2;fontFamily=Comic Sans MS;fontStyle=1" parent="1" vertex="1">
          <mxGeometry x="41546" y="7340" width="20" height="80" as="geometry" />
        </mxCell>
        <mxCell id="3Jkj5hIZHOZpRPRybCDb-188" value="读端" style="text;html=1;align=center;verticalAlign=middle;resizable=0;points=[];autosize=1;strokeColor=none;fillColor=none;strokeWidth=2;fontFamily=Comic Sans MS;fontStyle=1" parent="1" vertex="1">
          <mxGeometry x="41551" y="7364" width="50" height="30" as="geometry" />
        </mxCell>
        <mxCell id="3Jkj5hIZHOZpRPRybCDb-189" value="写端" style="text;html=1;align=center;verticalAlign=middle;resizable=0;points=[];autosize=1;strokeColor=none;fillColor=none;strokeWidth=2;fontFamily=Comic Sans MS;fontStyle=1" parent="1" vertex="1">
          <mxGeometry x="41510" y="7364" width="50" height="30" as="geometry" />
        </mxCell>
        <mxCell id="EbPGboj1KKy1FE9aRWtV-160" value="flowchart LR&#xa;    subgraph &quot;KERNEL_MODE&quot;&#xa;        direction LR&#xa;        C[&quot;C --&gt; D ~~~ E&#xa;    end&#xa;&#xa;&#xa;    subgraph &quot;USER_MODE&quot;&#xa;        direction RL&#xa;        A[&quot;1.&quot;]&#xa;        B[&quot; mood&quot;]&#xa;        B --&gt; A&#xa;    end" style="text;whiteSpace=wrap;" parent="1" vertex="1">
          <mxGeometry x="41690" y="7590" width="560" height="300" as="geometry" />
        </mxCell>
        <mxCell id="EbPGboj1KKy1FE9aRWtV-201" value="" style="group" parent="1" vertex="1" connectable="0">
          <mxGeometry x="41370" y="8000" width="700" height="400" as="geometry" />
        </mxCell>
        <mxCell id="EbPGboj1KKy1FE9aRWtV-180" value="" style="rounded=0;whiteSpace=wrap;html=1;sketch=1;curveFitting=1;jiggle=2;fontSize=13;align=center;" parent="EbPGboj1KKy1FE9aRWtV-201" vertex="1">
          <mxGeometry y="170" width="700" height="230" as="geometry" />
        </mxCell>
        <mxCell id="EbPGboj1KKy1FE9aRWtV-179" value="" style="rounded=0;whiteSpace=wrap;html=1;sketch=1;curveFitting=1;jiggle=2;fontSize=13;align=center;" parent="EbPGboj1KKy1FE9aRWtV-201" vertex="1">
          <mxGeometry width="700" height="170" as="geometry" />
        </mxCell>
        <mxCell id="EbPGboj1KKy1FE9aRWtV-161" value="1.执行主控制流main() 中某条指时，因为中断、异常、系统调用...进入 kernel mood" style="whiteSpace=wrap;html=1;fontStyle=1;fontFamily=Comic Sans MS;strokeWidth=3;rounded=1;sketch=1;curveFitting=1;jiggle=2;glass=0;shadow=0;fontSize=13;align=center;" parent="EbPGboj1KKy1FE9aRWtV-201" vertex="1">
          <mxGeometry x="160" y="35" width="180" height="70" as="geometry" />
        </mxCell>
        <mxCell id="EbPGboj1KKy1FE9aRWtV-162" value="4.调用 void sighandler(int sig)，自定义捕捉处理完后执行特殊系统调用 sigreturn()" style="whiteSpace=wrap;html=1;fontStyle=1;fontFamily=Comic Sans MS;strokeWidth=3;rounded=1;sketch=1;curveFitting=1;jiggle=2;glass=0;shadow=0;fontSize=13;align=center;" parent="EbPGboj1KKy1FE9aRWtV-201" vertex="1">
          <mxGeometry x="390" y="35" width="180" height="65" as="geometry" />
        </mxCell>
        <mxCell id="EbPGboj1KKy1FE9aRWtV-163" value="2.内核处理完中断、异常、系统调用后，先处理进程中可递达信号" style="whiteSpace=wrap;html=1;fontStyle=1;fontFamily=Comic Sans MS;strokeWidth=3;rounded=1;sketch=1;curveFitting=1;jiggle=2;glass=0;shadow=0;fontSize=13;align=center;verticalAlign=middle;" parent="EbPGboj1KKy1FE9aRWtV-201" vertex="1">
          <mxGeometry x="36" y="260" width="140" height="70" as="geometry" />
        </mxCell>
        <mxCell id="EbPGboj1KKy1FE9aRWtV-169" style="rounded=0;orthogonalLoop=1;jettySize=auto;html=1;exitX=0.25;exitY=1;exitDx=0;exitDy=0;entryX=0.5;entryY=0;entryDx=0;entryDy=0;strokeWidth=3;sketch=1;curveFitting=1;jiggle=2;fontSize=13;align=center;fillColor=#d80073;strokeColor=#A50040;" parent="EbPGboj1KKy1FE9aRWtV-201" source="EbPGboj1KKy1FE9aRWtV-161" target="EbPGboj1KKy1FE9aRWtV-163" edge="1">
          <mxGeometry relative="1" as="geometry" />
        </mxCell>
        <mxCell id="EbPGboj1KKy1FE9aRWtV-171" style="rounded=0;orthogonalLoop=1;jettySize=auto;html=1;exitX=1;exitY=0.5;exitDx=0;exitDy=0;entryX=0.25;entryY=1;entryDx=0;entryDy=0;strokeWidth=3;sketch=1;curveFitting=1;jiggle=2;fontSize=13;align=center;fillColor=#d80073;strokeColor=#A50040;" parent="EbPGboj1KKy1FE9aRWtV-201" source="EbPGboj1KKy1FE9aRWtV-164" target="EbPGboj1KKy1FE9aRWtV-162" edge="1">
          <mxGeometry relative="1" as="geometry" />
        </mxCell>
        <mxCell id="EbPGboj1KKy1FE9aRWtV-164" value="&amp;nbsp;3.使用 do_signal() 处理信号。①若信号有自定义捕捉，则回 user mood。②若信号为默认/忽略行为，则内核自己执行" style="whiteSpace=wrap;html=1;fontStyle=1;fontFamily=Comic Sans MS;strokeWidth=3;rounded=1;sketch=1;curveFitting=1;jiggle=2;glass=0;shadow=0;fontSize=13;align=center;" parent="EbPGboj1KKy1FE9aRWtV-201" vertex="1">
          <mxGeometry x="220" y="260" width="160" height="100" as="geometry" />
        </mxCell>
        <mxCell id="EbPGboj1KKy1FE9aRWtV-170" style="rounded=0;orthogonalLoop=1;jettySize=auto;html=1;exitX=1;exitY=0.5;exitDx=0;exitDy=0;entryX=0;entryY=0.5;entryDx=0;entryDy=0;strokeWidth=3;sketch=1;curveFitting=1;jiggle=2;fontSize=13;align=center;fillColor=#d80073;strokeColor=#A50040;" parent="EbPGboj1KKy1FE9aRWtV-201" source="EbPGboj1KKy1FE9aRWtV-163" target="EbPGboj1KKy1FE9aRWtV-164" edge="1">
          <mxGeometry relative="1" as="geometry" />
        </mxCell>
        <mxCell id="EbPGboj1KKy1FE9aRWtV-177" style="rounded=0;orthogonalLoop=1;jettySize=auto;html=1;exitX=0;exitY=0.5;exitDx=0;exitDy=0;entryX=0.75;entryY=1;entryDx=0;entryDy=0;strokeWidth=3;sketch=1;curveFitting=1;jiggle=2;fontSize=13;align=center;fillColor=#d80073;strokeColor=#A50040;" parent="EbPGboj1KKy1FE9aRWtV-201" source="EbPGboj1KKy1FE9aRWtV-165" target="EbPGboj1KKy1FE9aRWtV-161" edge="1">
          <mxGeometry relative="1" as="geometry" />
        </mxCell>
        <mxCell id="EbPGboj1KKy1FE9aRWtV-165" value="5.执行特殊调用完 sys_sigreturn() 返回 user mood，从主控制流中上次被中断的地方开始向下执行" style="whiteSpace=wrap;html=1;fontStyle=1;fontFamily=Comic Sans MS;strokeWidth=3;rounded=1;sketch=1;curveFitting=1;jiggle=2;glass=0;shadow=0;fontSize=13;align=center;" parent="EbPGboj1KKy1FE9aRWtV-201" vertex="1">
          <mxGeometry x="450" y="260" width="230" height="70" as="geometry" />
        </mxCell>
        <mxCell id="EbPGboj1KKy1FE9aRWtV-181" value="内核层（kernel mood）" style="text;html=1;align=center;verticalAlign=middle;resizable=0;points=[];autosize=1;strokeColor=none;fillColor=none;fontStyle=1;fontFamily=Comic Sans MS;fontSize=13;" parent="EbPGboj1KKy1FE9aRWtV-201" vertex="1">
          <mxGeometry y="170" width="160" height="30" as="geometry" />
        </mxCell>
        <mxCell id="EbPGboj1KKy1FE9aRWtV-182" value="用户层（user mood）" style="text;html=1;align=center;verticalAlign=middle;resizable=0;points=[];autosize=1;strokeColor=none;fillColor=none;fontStyle=1;fontFamily=Comic Sans MS;fontSize=13;" parent="EbPGboj1KKy1FE9aRWtV-201" vertex="1">
          <mxGeometry width="150" height="30" as="geometry" />
        </mxCell>
        <mxCell id="EbPGboj1KKy1FE9aRWtV-174" style="rounded=0;orthogonalLoop=1;jettySize=auto;html=1;exitX=0.75;exitY=1;exitDx=0;exitDy=0;entryX=0.5;entryY=0;entryDx=0;entryDy=0;strokeWidth=3;sketch=1;curveFitting=1;jiggle=2;fontSize=13;align=center;fillColor=#d80073;strokeColor=#A50040;" parent="EbPGboj1KKy1FE9aRWtV-201" source="EbPGboj1KKy1FE9aRWtV-162" target="EbPGboj1KKy1FE9aRWtV-165" edge="1">
          <mxGeometry relative="1" as="geometry" />
        </mxCell>
        <mxCell id="EbPGboj1KKy1FE9aRWtV-183" style="rounded=0;orthogonalLoop=1;jettySize=auto;html=1;exitX=1;exitY=0.5;exitDx=0;exitDy=0;entryX=0;entryY=0.5;entryDx=0;entryDy=0;strokeWidth=3;sketch=1;curveFitting=1;jiggle=2;fontSize=13;align=center;dashed=1;" parent="EbPGboj1KKy1FE9aRWtV-201" source="EbPGboj1KKy1FE9aRWtV-164" target="EbPGboj1KKy1FE9aRWtV-165" edge="1">
          <mxGeometry relative="1" as="geometry">
            <mxPoint x="390" y="320" as="sourcePoint" />
            <mxPoint x="445" y="110" as="targetPoint" />
          </mxGeometry>
        </mxCell>
        <mxCell id="J9RImlqA3bytwdumoZye-214" value="" style="group" vertex="1" connectable="0" parent="1">
          <mxGeometry x="41400" y="8480" width="850" height="510" as="geometry" />
        </mxCell>
        <mxCell id="J9RImlqA3bytwdumoZye-213" value="" style="whiteSpace=wrap;html=1;sketch=1;curveFitting=1;jiggle=2;rounded=0;strokeWidth=1;fontFamily=Comic Sans MS;fontStyle=1;fontSize=14;" vertex="1" parent="J9RImlqA3bytwdumoZye-214">
          <mxGeometry width="850" height="510" as="geometry" />
        </mxCell>
        <mxCell id="J9RImlqA3bytwdumoZye-176" value="head" style="whiteSpace=wrap;html=1;sketch=1;curveFitting=1;jiggle=2;rounded=1;strokeWidth=3;fontFamily=Comic Sans MS;fontStyle=1;fontSize=14;" vertex="1" parent="J9RImlqA3bytwdumoZye-214">
          <mxGeometry x="121" y="160" width="79" height="40" as="geometry" />
        </mxCell>
        <mxCell id="J9RImlqA3bytwdumoZye-177" value="node" style="whiteSpace=wrap;html=1;sketch=1;curveFitting=1;jiggle=2;rounded=1;strokeWidth=3;fontFamily=Comic Sans MS;fontStyle=1;fontSize=14;" vertex="1" parent="J9RImlqA3bytwdumoZye-214">
          <mxGeometry x="280.5" y="160" width="79" height="40" as="geometry" />
        </mxCell>
        <mxCell id="J9RImlqA3bytwdumoZye-178" style="rounded=0;orthogonalLoop=1;jettySize=auto;html=1;sketch=1;curveFitting=1;jiggle=2;fontSize=12;strokeWidth=2;" edge="1" parent="J9RImlqA3bytwdumoZye-214" source="J9RImlqA3bytwdumoZye-176" target="J9RImlqA3bytwdumoZye-177">
          <mxGeometry relative="1" as="geometry">
            <mxPoint x="210" y="220" as="sourcePoint" />
          </mxGeometry>
        </mxCell>
        <mxCell id="J9RImlqA3bytwdumoZye-179" value="node1" style="whiteSpace=wrap;html=1;sketch=1;curveFitting=1;jiggle=2;rounded=1;strokeWidth=3;fontFamily=Comic Sans MS;fontStyle=1;fontSize=14;" vertex="1" parent="J9RImlqA3bytwdumoZye-214">
          <mxGeometry x="201" y="80" width="79" height="40" as="geometry" />
        </mxCell>
        <mxCell id="J9RImlqA3bytwdumoZye-180" style="rounded=0;orthogonalLoop=1;jettySize=auto;html=1;sketch=1;curveFitting=1;jiggle=2;fontSize=12;strokeWidth=2;fillColor=#d80073;strokeColor=#A50040;" edge="1" parent="J9RImlqA3bytwdumoZye-214" source="J9RImlqA3bytwdumoZye-179" target="J9RImlqA3bytwdumoZye-177">
          <mxGeometry relative="1" as="geometry">
            <mxPoint x="190" y="240" as="sourcePoint" />
            <mxPoint x="271" y="240" as="targetPoint" />
          </mxGeometry>
        </mxCell>
        <mxCell id="J9RImlqA3bytwdumoZye-182" value="head" style="whiteSpace=wrap;html=1;sketch=1;curveFitting=1;jiggle=2;rounded=1;strokeWidth=3;fontFamily=Comic Sans MS;fontStyle=1;fontSize=14;" vertex="1" parent="J9RImlqA3bytwdumoZye-214">
          <mxGeometry x="460" y="160" width="79" height="40" as="geometry" />
        </mxCell>
        <mxCell id="J9RImlqA3bytwdumoZye-183" value="node" style="whiteSpace=wrap;html=1;sketch=1;curveFitting=1;jiggle=2;rounded=1;strokeWidth=3;fontFamily=Comic Sans MS;fontStyle=1;fontSize=14;" vertex="1" parent="J9RImlqA3bytwdumoZye-214">
          <mxGeometry x="730" y="160" width="79" height="40" as="geometry" />
        </mxCell>
        <mxCell id="J9RImlqA3bytwdumoZye-184" value="node1" style="whiteSpace=wrap;html=1;sketch=1;curveFitting=1;jiggle=2;rounded=1;strokeWidth=3;fontFamily=Comic Sans MS;fontStyle=1;fontSize=14;" vertex="1" parent="J9RImlqA3bytwdumoZye-214">
          <mxGeometry x="600" y="90" width="79" height="40" as="geometry" />
        </mxCell>
        <mxCell id="J9RImlqA3bytwdumoZye-185" style="rounded=0;orthogonalLoop=1;jettySize=auto;html=1;sketch=1;curveFitting=1;jiggle=2;fontSize=12;strokeWidth=2;" edge="1" parent="J9RImlqA3bytwdumoZye-214" source="J9RImlqA3bytwdumoZye-184" target="J9RImlqA3bytwdumoZye-183">
          <mxGeometry relative="1" as="geometry">
            <mxPoint x="529" y="240" as="sourcePoint" />
            <mxPoint x="610" y="240" as="targetPoint" />
          </mxGeometry>
        </mxCell>
        <mxCell id="J9RImlqA3bytwdumoZye-186" value="node2" style="whiteSpace=wrap;html=1;sketch=1;curveFitting=1;jiggle=2;rounded=1;strokeWidth=3;fontFamily=Comic Sans MS;fontStyle=1;fontSize=14;" vertex="1" parent="J9RImlqA3bytwdumoZye-214">
          <mxGeometry x="600" y="230" width="79" height="40" as="geometry" />
        </mxCell>
        <mxCell id="J9RImlqA3bytwdumoZye-187" style="rounded=0;orthogonalLoop=1;jettySize=auto;html=1;sketch=1;curveFitting=1;jiggle=2;fontSize=12;strokeWidth=2;dashed=1;fillColor=#d80073;strokeColor=#A50040;" edge="1" parent="J9RImlqA3bytwdumoZye-214" source="J9RImlqA3bytwdumoZye-182" target="J9RImlqA3bytwdumoZye-183">
          <mxGeometry relative="1" as="geometry">
            <mxPoint x="549" y="170" as="sourcePoint" />
            <mxPoint x="610" y="140" as="targetPoint" />
          </mxGeometry>
        </mxCell>
        <mxCell id="J9RImlqA3bytwdumoZye-189" value="head" style="whiteSpace=wrap;html=1;sketch=1;curveFitting=1;jiggle=2;rounded=1;strokeWidth=3;fontFamily=Comic Sans MS;fontStyle=1;fontSize=14;" vertex="1" parent="J9RImlqA3bytwdumoZye-214">
          <mxGeometry x="55" y="380" width="79" height="40" as="geometry" />
        </mxCell>
        <mxCell id="J9RImlqA3bytwdumoZye-190" value="node" style="whiteSpace=wrap;html=1;sketch=1;curveFitting=1;jiggle=2;rounded=1;strokeWidth=3;fontFamily=Comic Sans MS;fontStyle=1;fontSize=14;" vertex="1" parent="J9RImlqA3bytwdumoZye-214">
          <mxGeometry x="325" y="380" width="79" height="40" as="geometry" />
        </mxCell>
        <mxCell id="J9RImlqA3bytwdumoZye-181" style="rounded=0;orthogonalLoop=1;jettySize=auto;html=1;sketch=1;curveFitting=1;jiggle=2;fontSize=12;strokeWidth=2;fillColor=#d80073;strokeColor=#A50040;" edge="1" parent="J9RImlqA3bytwdumoZye-214" source="J9RImlqA3bytwdumoZye-186" target="J9RImlqA3bytwdumoZye-183">
          <mxGeometry relative="1" as="geometry">
            <mxPoint x="549" y="220" as="sourcePoint" />
          </mxGeometry>
        </mxCell>
        <mxCell id="J9RImlqA3bytwdumoZye-191" value="node1" style="whiteSpace=wrap;html=1;sketch=1;curveFitting=1;jiggle=2;rounded=1;strokeWidth=3;fontFamily=Comic Sans MS;fontStyle=1;fontSize=14;" vertex="1" parent="J9RImlqA3bytwdumoZye-214">
          <mxGeometry x="195" y="310" width="79" height="40" as="geometry" />
        </mxCell>
        <mxCell id="J9RImlqA3bytwdumoZye-193" value="node2" style="whiteSpace=wrap;html=1;sketch=1;curveFitting=1;jiggle=2;rounded=1;strokeWidth=3;fontFamily=Comic Sans MS;fontStyle=1;fontSize=14;" vertex="1" parent="J9RImlqA3bytwdumoZye-214">
          <mxGeometry x="195" y="450" width="79" height="40" as="geometry" />
        </mxCell>
        <mxCell id="J9RImlqA3bytwdumoZye-194" style="rounded=0;orthogonalLoop=1;jettySize=auto;html=1;sketch=1;curveFitting=1;jiggle=2;fontSize=12;strokeWidth=2;dashed=1;fillColor=#d80073;strokeColor=#A50040;" edge="1" parent="J9RImlqA3bytwdumoZye-214" source="J9RImlqA3bytwdumoZye-189" target="J9RImlqA3bytwdumoZye-193">
          <mxGeometry relative="1" as="geometry">
            <mxPoint x="144" y="390" as="sourcePoint" />
            <mxPoint x="205" y="360" as="targetPoint" />
          </mxGeometry>
        </mxCell>
        <mxCell id="J9RImlqA3bytwdumoZye-195" style="rounded=0;orthogonalLoop=1;jettySize=auto;html=1;sketch=1;curveFitting=1;jiggle=2;fontSize=12;strokeWidth=2;" edge="1" parent="J9RImlqA3bytwdumoZye-214" source="J9RImlqA3bytwdumoZye-191" target="J9RImlqA3bytwdumoZye-190">
          <mxGeometry relative="1" as="geometry">
            <mxPoint x="144" y="390" as="sourcePoint" />
            <mxPoint x="244" y="400" as="targetPoint" />
          </mxGeometry>
        </mxCell>
        <mxCell id="J9RImlqA3bytwdumoZye-196" style="rounded=0;orthogonalLoop=1;jettySize=auto;html=1;sketch=1;curveFitting=1;jiggle=2;fontSize=12;strokeWidth=2;fillColor=#d80073;strokeColor=#A50040;" edge="1" parent="J9RImlqA3bytwdumoZye-214" source="J9RImlqA3bytwdumoZye-182" target="J9RImlqA3bytwdumoZye-186">
          <mxGeometry relative="1" as="geometry">
            <mxPoint x="549" y="190" as="sourcePoint" />
            <mxPoint x="740" y="190" as="targetPoint" />
          </mxGeometry>
        </mxCell>
        <mxCell id="J9RImlqA3bytwdumoZye-188" style="rounded=0;orthogonalLoop=1;jettySize=auto;html=1;sketch=1;curveFitting=1;jiggle=2;fontSize=12;strokeWidth=2;" edge="1" parent="J9RImlqA3bytwdumoZye-214" source="J9RImlqA3bytwdumoZye-193" target="J9RImlqA3bytwdumoZye-190">
          <mxGeometry relative="1" as="geometry">
            <mxPoint x="144" y="440" as="sourcePoint" />
          </mxGeometry>
        </mxCell>
        <mxCell id="J9RImlqA3bytwdumoZye-197" style="rounded=0;orthogonalLoop=1;jettySize=auto;html=1;sketch=1;curveFitting=1;jiggle=2;fontSize=12;strokeWidth=2;fillColor=#d80073;strokeColor=#A50040;" edge="1" parent="J9RImlqA3bytwdumoZye-214" source="J9RImlqA3bytwdumoZye-189" target="J9RImlqA3bytwdumoZye-191">
          <mxGeometry relative="1" as="geometry">
            <mxPoint x="144" y="430" as="sourcePoint" />
            <mxPoint x="205" y="460" as="targetPoint" />
          </mxGeometry>
        </mxCell>
        <mxCell id="J9RImlqA3bytwdumoZye-199" value="head" style="whiteSpace=wrap;html=1;sketch=1;curveFitting=1;jiggle=2;rounded=1;strokeWidth=3;fontFamily=Comic Sans MS;fontStyle=1;fontSize=14;" vertex="1" parent="J9RImlqA3bytwdumoZye-214">
          <mxGeometry x="460" y="340" width="79" height="40" as="geometry" />
        </mxCell>
        <mxCell id="J9RImlqA3bytwdumoZye-200" value="node" style="whiteSpace=wrap;html=1;sketch=1;curveFitting=1;jiggle=2;rounded=1;strokeWidth=3;fontFamily=Comic Sans MS;fontStyle=1;fontSize=14;" vertex="1" parent="J9RImlqA3bytwdumoZye-214">
          <mxGeometry x="720" y="340" width="79" height="40" as="geometry" />
        </mxCell>
        <mxCell id="J9RImlqA3bytwdumoZye-201" value="node1" style="whiteSpace=wrap;html=1;sketch=1;curveFitting=1;jiggle=2;rounded=1;strokeWidth=3;fontFamily=Comic Sans MS;fontStyle=1;fontSize=14;" vertex="1" parent="J9RImlqA3bytwdumoZye-214">
          <mxGeometry x="590" y="340" width="79" height="40" as="geometry" />
        </mxCell>
        <mxCell id="J9RImlqA3bytwdumoZye-202" value="node2" style="whiteSpace=wrap;html=1;sketch=1;curveFitting=1;jiggle=2;rounded=1;strokeWidth=3;fontFamily=Comic Sans MS;fontStyle=1;fontSize=14;" vertex="1" parent="J9RImlqA3bytwdumoZye-214">
          <mxGeometry x="630" y="430" width="79" height="40" as="geometry" />
        </mxCell>
        <mxCell id="J9RImlqA3bytwdumoZye-204" style="rounded=0;orthogonalLoop=1;jettySize=auto;html=1;sketch=1;curveFitting=1;jiggle=2;fontSize=12;strokeWidth=2;" edge="1" parent="J9RImlqA3bytwdumoZye-214" source="J9RImlqA3bytwdumoZye-201" target="J9RImlqA3bytwdumoZye-200">
          <mxGeometry relative="1" as="geometry">
            <mxPoint x="539" y="360" as="sourcePoint" />
            <mxPoint x="639" y="370" as="targetPoint" />
          </mxGeometry>
        </mxCell>
        <mxCell id="J9RImlqA3bytwdumoZye-198" style="rounded=0;orthogonalLoop=1;jettySize=auto;html=1;sketch=1;curveFitting=1;jiggle=2;fontSize=12;strokeWidth=2;" edge="1" parent="J9RImlqA3bytwdumoZye-214" source="J9RImlqA3bytwdumoZye-202" target="J9RImlqA3bytwdumoZye-200">
          <mxGeometry relative="1" as="geometry">
            <mxPoint x="539" y="410" as="sourcePoint" />
          </mxGeometry>
        </mxCell>
        <mxCell id="J9RImlqA3bytwdumoZye-205" style="rounded=0;orthogonalLoop=1;jettySize=auto;html=1;sketch=1;curveFitting=1;jiggle=2;fontSize=12;strokeWidth=2;" edge="1" parent="J9RImlqA3bytwdumoZye-214" source="J9RImlqA3bytwdumoZye-199" target="J9RImlqA3bytwdumoZye-201">
          <mxGeometry relative="1" as="geometry">
            <mxPoint x="539" y="400" as="sourcePoint" />
            <mxPoint x="600" y="430" as="targetPoint" />
          </mxGeometry>
        </mxCell>
        <mxCell id="J9RImlqA3bytwdumoZye-207" value="&lt;b&gt;&lt;font style=&quot;font-size: 14px;&quot; face=&quot;Comic Sans MS&quot;&gt;假设在头插链表的过程中，进程接受到了无阻塞的一个信号&lt;/font&gt;&lt;/b&gt;" style="text;html=1;align=center;verticalAlign=middle;resizable=0;points=[];autosize=1;strokeColor=none;fillColor=none;" vertex="1" parent="J9RImlqA3bytwdumoZye-214">
          <mxGeometry x="39.5" y="20" width="390" height="30" as="geometry" />
        </mxCell>
        <mxCell id="J9RImlqA3bytwdumoZye-208" value="&lt;font face=&quot;Comic Sans MS&quot;&gt;&lt;span style=&quot;font-size: 14px;&quot;&gt;&lt;b&gt;该信号的处理行为也是头插链表，进程必须先&lt;br&gt;等待该行为执行完毕才能回到主程序流中继续执行&lt;/b&gt;&lt;/span&gt;&lt;/font&gt;" style="text;html=1;align=center;verticalAlign=middle;resizable=0;points=[];autosize=1;strokeColor=none;fillColor=none;" vertex="1" parent="J9RImlqA3bytwdumoZye-214">
          <mxGeometry x="474.5" y="20" width="330" height="50" as="geometry" />
        </mxCell>
        <mxCell id="J9RImlqA3bytwdumoZye-209" value="&lt;font face=&quot;Comic Sans MS&quot;&gt;&lt;span style=&quot;font-size: 14px;&quot;&gt;&lt;b&gt;信号行为处理完毕时，主程序流开始继续执行&lt;/b&gt;&lt;/span&gt;&lt;/font&gt;" style="text;html=1;align=center;verticalAlign=middle;resizable=0;points=[];autosize=1;strokeColor=none;fillColor=none;" vertex="1" parent="J9RImlqA3bytwdumoZye-214">
          <mxGeometry x="80" y="250" width="300" height="30" as="geometry" />
        </mxCell>
        <mxCell id="J9RImlqA3bytwdumoZye-210" value="&lt;font face=&quot;Comic Sans MS&quot;&gt;&lt;span style=&quot;font-size: 14px;&quot;&gt;&lt;b&gt;如果释放下列链表，就会发生内存泄漏...&lt;/b&gt;&lt;/span&gt;&lt;/font&gt;" style="text;html=1;align=center;verticalAlign=middle;resizable=0;points=[];autosize=1;strokeColor=none;fillColor=none;" vertex="1" parent="J9RImlqA3bytwdumoZye-214">
          <mxGeometry x="499.5" y="290" width="280" height="30" as="geometry" />
        </mxCell>
      </root>
    </mxGraphModel>
  </diagram>
</mxfile>
